<svg width="218" height="44" viewBox="0 0 218 44" fill="none" xmlns="http://www.w3.org/2000/svg">
<path d="M217.045 16.8296V18.8009H214.072V27.1133H212.041V18.8009H209.055V16.8287L217.045 16.8296ZM193.059 27.1142H195.074V22.9298H198.384V20.9576H195.074V18.8009H201.048V16.8287H193.059V27.1142ZM181.663 16.8296L185.018 27.1142H182.975L182.496 25.6488H178.692L178.213 27.1142H176.208L179.589 16.8296H181.663ZM181.86 23.7048L180.592 19.802L179.325 23.7048H181.86ZM166.531 23.6907L168.728 27.1142H166.362L164.361 24.0571H162.474V27.1142H160.458V16.8296H164.826C165.312 16.8051 165.798 16.8813 166.253 17.0534C166.708 17.2254 167.123 17.4897 167.471 17.8295C167.819 18.1693 168.093 18.5775 168.276 19.0282C168.459 19.479 168.547 19.9628 168.534 20.4491C168.553 21.1259 168.373 21.7934 168.017 22.3694C167.661 22.9454 167.145 23.4047 166.531 23.6907ZM166.517 20.45C166.527 20.2308 166.492 20.0119 166.413 19.8072C166.333 19.6026 166.212 19.4167 166.057 19.2616C165.902 19.1064 165.716 18.9854 165.512 18.9062C165.307 18.827 165.088 18.7915 164.869 18.8018H162.474V22.0982H164.857C165.077 22.1081 165.296 22.0724 165.501 21.9933C165.706 21.9141 165.892 21.7934 166.048 21.6386C166.204 21.4837 166.327 21.2983 166.407 21.0938C166.488 20.8894 166.525 20.6705 166.517 20.4509V20.45ZM147.762 18.6605C148.292 18.6457 148.817 18.7723 149.283 19.0274C149.748 19.2824 150.137 19.6567 150.41 20.1119L152.058 18.8857C151.587 18.1874 150.948 17.6189 150.199 17.2325C149.451 16.846 148.617 16.6541 147.775 16.6743C146.37 16.6743 145.023 17.2323 144.03 18.2256C143.036 19.219 142.478 20.5662 142.478 21.971C142.478 23.3758 143.036 24.7231 144.03 25.7164C145.023 26.7098 146.37 27.2678 147.775 27.2678C148.619 27.2885 149.454 27.0953 150.203 26.7062C150.952 26.317 151.59 25.7446 152.058 25.0423L150.41 23.8311C150.135 24.2837 149.745 24.6559 149.28 24.9105C148.815 25.165 148.292 25.293 147.762 25.2815C146.903 25.2535 146.088 24.8924 145.49 24.2746C144.892 23.6568 144.558 22.8308 144.558 21.971C144.558 21.1113 144.892 20.2852 145.49 19.6675C146.088 19.0497 146.903 18.6886 147.762 18.6605ZM126.398 27.1133H134.387V25.1412H128.399V22.9298H131.724V20.9576H128.399V18.8009H134.387V16.8287H126.401L126.398 27.1133ZM115.435 21.1394C114.449 20.8437 113.448 20.9708 112.786 20.7316C112.584 20.6771 112.404 20.5583 112.274 20.3931C112.145 20.2279 112.072 20.0251 112.068 19.8152C112.068 19.1249 112.686 18.589 113.688 18.589C114.674 18.589 115.35 19.0825 115.378 19.825H117.393C117.393 17.9517 115.829 16.6689 113.715 16.6689C111.559 16.6689 110.066 18.0346 110.066 19.9097C110.045 20.5344 110.241 21.1473 110.621 21.6434C111.001 22.1394 111.543 22.4878 112.152 22.6287C113.068 22.883 114.153 22.8123 114.814 23.0516C115.026 23.1112 115.212 23.2384 115.344 23.4137C115.476 23.5891 115.548 23.803 115.547 24.0227C115.547 24.7695 114.913 25.3469 113.828 25.3469C112.769 25.3469 111.983 24.7978 111.983 23.9803H109.982C109.982 25.9224 111.616 27.2634 113.8 27.2634C116.054 27.2634 117.547 25.8509 117.547 23.9088C117.563 23.2763 117.363 22.6573 116.979 22.154C116.596 21.6507 116.052 21.2931 115.438 21.1403L115.435 21.1394ZM98.6421 16.8287L101.997 27.1133H99.9539L99.4746 25.6479H95.6706L95.1913 27.1133H93.1908L96.5719 16.8287H98.6421ZM98.839 23.704L97.5713 19.8011L96.3035 23.704H98.839ZM82.7508 20.9567H78.5531V16.8287H76.5404V27.1133H78.5558V22.9289H82.7535V27.1133H84.7689V16.8287H82.7535L82.7508 20.9567ZM68.1758 20.5206C68.1944 21.0195 68.1085 21.5168 67.9235 21.9806C67.7385 22.4443 67.4586 22.8643 67.1017 23.2134C66.7448 23.5626 66.3188 23.8333 65.8512 24.0081C65.3835 24.1828 64.8844 24.2579 64.386 24.2284H62.0334V27.116H60.0232V16.8314H64.3904C64.8874 16.8015 65.3852 16.8757 65.8519 17.0492C66.3185 17.2227 66.7439 17.4918 67.1006 17.8391C67.4573 18.1865 67.7376 18.6045 67.9235 19.0664C68.1095 19.5282 68.1969 20.0239 68.1802 20.5215L68.1758 20.5206ZM66.1613 20.5206C66.1717 20.2909 66.1339 20.0616 66.0504 19.8473C65.9668 19.6331 65.8392 19.4388 65.676 19.2769C65.5127 19.115 65.3174 18.989 65.1025 18.9072C64.8876 18.8254 64.658 18.7895 64.4283 18.8018H62.0334V22.2535H64.4283C64.6591 22.265 64.8896 22.2281 65.1053 22.1451C65.3209 22.0622 65.5168 21.9351 65.6804 21.772C65.844 21.6089 65.9717 21.4134 66.0553 21.1981C66.1388 20.9827 66.1765 20.7522 66.1657 20.5215L66.1613 20.5206Z" fill="white"/>
<path d="M3.42095 34.8671H4.58624C4.77444 34.8671 4.927 34.7145 4.927 34.5263V33.361C4.927 33.1728 4.77444 33.0203 4.58624 33.0203H3.42095C3.23275 33.0203 3.08019 33.1728 3.08019 33.361V34.5263C3.08019 34.7145 3.23275 34.8671 3.42095 34.8671Z" fill="white"/>
<path d="M0.746267 31.4974H1.27108C1.42771 31.4974 1.55469 31.3705 1.55469 31.2138V30.689C1.55469 30.5324 1.42771 30.4054 1.27108 30.4054H0.746267C0.589634 30.4054 0.462657 30.5324 0.462657 30.689V31.2138C0.462657 31.3705 0.589634 31.4974 0.746267 31.4974Z" fill="white"/>
<path d="M12.7231 43.4813H13.2479C13.4045 43.4813 13.5315 43.3543 13.5315 43.1977V42.6729C13.5315 42.5163 13.4045 42.3893 13.2479 42.3893H12.7231C12.5664 42.3893 12.4395 42.5163 12.4395 42.6729V43.1977C12.4395 43.3543 12.5664 43.4813 12.7231 43.4813Z" fill="white"/>
<path d="M21.8672 28.5021H22.0686C22.3146 28.5021 22.5139 28.3027 22.5139 28.0568V27.8553C22.5139 27.6094 22.3146 27.41 22.0686 27.41H21.8672C21.6213 27.41 21.4219 27.6094 21.4219 27.8553V28.0568C21.4219 28.3027 21.6213 28.5021 21.8672 28.5021Z" fill="white"/>
<path d="M9.40972 40.8639H10.575C10.7632 40.8639 10.9158 40.7113 10.9158 40.5231V39.3578C10.9158 39.1696 10.7632 39.0171 10.575 39.0171H9.40972C9.22152 39.0171 9.06896 39.1696 9.06896 39.3578V40.5231C9.06896 40.7113 9.22152 40.8639 9.40972 40.8639Z" fill="white"/>
<path d="M6.10533 38.2887H7.88947C8.13861 38.2887 8.34058 38.0867 8.34058 37.8376V36.0535C8.34058 35.8043 8.13861 35.6023 7.88947 35.6023H6.10533C5.85619 35.6023 5.65422 35.8043 5.65422 36.0535V37.8376C5.65422 38.0867 5.85619 38.2887 6.10533 38.2887Z" fill="white"/>
<path d="M0.399804 25.9685L1.61983 25.9671C1.83923 25.9669 2.01688 25.7888 2.01663 25.5694L2.01523 24.3494C2.01497 24.13 1.83691 23.9523 1.61751 23.9526L0.397484 23.954C0.178084 23.9542 0.000429536 24.1323 0.000682267 24.3517L0.00208764 25.5717C0.00234037 25.7911 0.180404 25.9688 0.399804 25.9685Z" fill="white"/>
<path d="M15.6177 28.7122H16.3451C16.5616 28.7122 16.7371 28.5367 16.7371 28.3202V27.5928C16.7371 27.3763 16.5616 27.2008 16.3451 27.2008H15.6177C15.4012 27.2008 15.2257 27.3763 15.2257 27.5928V28.3202C15.2257 28.5367 15.4012 28.7122 15.6177 28.7122Z" fill="white"/>
<path d="M12.5305 25.9109L13.4433 25.9099C13.7158 25.9096 13.9365 25.6884 13.9362 25.4158L13.9351 24.503C13.9348 24.2305 13.7136 24.0098 13.4411 24.0101L12.5283 24.0111C12.2557 24.0115 12.0351 24.2326 12.0354 24.5052L12.0364 25.418C12.0367 25.6905 12.2579 25.9112 12.5305 25.9109Z" fill="white"/>
<path d="M18.5334 31.9017H19.4462C19.7188 31.9017 19.9397 31.6808 19.9397 31.4082V30.4954C19.9397 30.2229 19.7188 30.002 19.4462 30.002H18.5334C18.2609 30.002 18.0399 30.2229 18.0399 30.4954V31.4082C18.0399 31.6808 18.2609 31.9017 18.5334 31.9017Z" fill="white"/>
<path d="M9.22873 29.2162H10.7551C11.0291 29.2162 11.2512 28.9941 11.2512 28.7201V27.1937C11.2512 26.9197 11.0291 26.6976 10.7551 26.6976H9.22873C8.95472 26.6976 8.7326 26.9197 8.7326 27.1937V28.7201C8.7326 28.9941 8.95472 29.2162 9.22873 29.2162Z" fill="white"/>
<path d="M9.23313 23.2202H10.7507C11.0232 23.2202 11.2441 22.9993 11.2441 22.7267V21.2092C11.2441 20.9367 11.0232 20.7157 10.7507 20.7157H9.23313C8.96058 20.7157 8.73964 20.9367 8.73964 21.2092V22.7267C8.73964 22.9993 8.96058 23.2202 9.23313 23.2202Z" fill="white"/>
<path d="M12.2268 32.2045H13.7443C14.0169 32.2045 14.2378 31.9835 14.2378 31.711V30.1935C14.2378 29.9209 14.0169 29.7 13.7443 29.7H12.2268C11.9542 29.7 11.7333 29.9209 11.7333 30.1935V31.711C11.7333 31.9835 11.9542 32.2045 12.2268 32.2045Z" fill="white"/>
<path d="M15.2177 35.2025H16.7441C17.0181 35.2025 17.2402 34.9804 17.2402 34.7064V33.18C17.2402 32.906 17.0181 32.6839 16.7441 32.6839H15.2177C14.9437 32.6839 14.7216 32.906 14.7216 33.18V34.7064C14.7216 34.9804 14.9437 35.2025 15.2177 35.2025Z" fill="white"/>
<path d="M18.3798 43.9431H19.5998C19.8192 43.9431 19.9971 43.7653 19.9971 43.5459V42.3258C19.9971 42.1064 19.8192 41.9286 19.5998 41.9286H18.3798C18.1604 41.9286 17.9825 42.1064 17.9825 42.3258V43.5459C17.9825 43.7653 18.1604 43.9431 18.3798 43.9431Z" fill="white"/>
<path d="M6.06654 26.3463L7.93277 26.3441C8.1824 26.3439 8.38453 26.1413 8.38424 25.8916L8.3821 24.0254C8.38181 23.7758 8.17921 23.5736 7.92958 23.5739L6.06335 23.5761C5.81372 23.5764 5.61159 23.779 5.61188 24.0286L5.61403 25.8948C5.61431 26.1445 5.81691 26.3466 6.06654 26.3463Z" fill="white"/>
<path d="M3.12682 29.2577H4.88006C5.11458 29.2577 5.30469 29.0676 5.30469 28.8331V27.0798C5.30469 26.8453 5.11458 26.6552 4.88006 26.6552H3.12682C2.89231 26.6552 2.7022 26.8453 2.7022 27.0798L2.7022 28.8331C2.7022 29.0676 2.89231 29.2577 3.12682 29.2577Z" fill="white"/>
<path d="M5.89096 32.5259H8.10502C8.36294 32.5259 8.57202 32.3168 8.57202 32.0589V29.8448C8.57202 29.5869 8.36294 29.3778 8.10502 29.3778H5.89096C5.63305 29.3778 5.42396 29.5869 5.42396 29.8448V32.0589C5.42396 32.3168 5.63305 32.5259 5.89096 32.5259Z" fill="white"/>
<path d="M8.78041 35.6016H11.2046C11.4508 35.6016 11.6504 35.402 11.6504 35.1557V32.7316C11.6504 32.4854 11.4508 32.2858 11.2046 32.2858H8.78041C8.5342 32.2858 8.3346 32.4854 8.3346 32.7316V35.1557C8.3346 35.402 8.5342 35.6016 8.78041 35.6016Z" fill="white"/>
<path d="M11.879 38.5192H14.0931C14.351 38.5192 14.5601 38.3101 14.5601 38.0522V35.8381C14.5601 35.5802 14.351 35.3711 14.0931 35.3711H11.879C11.6211 35.3711 11.412 35.5802 11.412 35.8381V38.0522C11.412 38.3101 11.6211 38.5192 11.879 38.5192Z" fill="white"/>
<path d="M18.0991 38.3302H19.8806C20.1537 38.3302 20.375 38.1089 20.375 37.8358V36.0543C20.375 35.7813 20.1537 35.56 19.8806 35.56H18.0991C17.8261 35.56 17.6048 35.7813 17.6048 36.0543V37.8358C17.6048 38.1089 17.8261 38.3302 18.0991 38.3302Z" fill="white"/>
<path d="M15.1046 41.2417H16.8578C17.0924 41.2417 17.2825 41.0516 17.2825 40.8171V39.0638C17.2825 38.8293 17.0924 38.6392 16.8578 38.6392H15.1046C14.8701 38.6392 14.68 38.8293 14.68 39.0638V40.8171C14.68 41.0516 14.8701 41.2417 15.1046 41.2417Z" fill="white"/>
<path d="M23.2202 34.7028V33.1853C23.2202 32.9127 22.9993 32.6918 22.7267 32.6918H21.2092C20.9367 32.6918 20.7157 32.9127 20.7157 33.1853V34.7028C20.7157 34.9753 20.9367 35.1963 21.2092 35.1963H22.7267C22.9993 35.1963 23.2202 34.9753 23.2202 34.7028Z" fill="white"/>
<path d="M34.8713 40.5231V39.3579C34.8713 39.1697 34.7188 39.0171 34.5306 39.0171H33.3653C33.1771 39.0171 33.0245 39.1697 33.0245 39.3579V40.5231C33.0245 40.7113 33.1771 40.8639 33.3653 40.8639H34.5306C34.7188 40.8639 34.8713 40.7113 34.8713 40.5231Z" fill="white"/>
<path d="M31.4956 43.1987V42.6739C31.4956 42.5172 31.3686 42.3903 31.212 42.3903H30.6872C30.5306 42.3903 30.4036 42.5172 30.4036 42.6739V43.1987C30.4036 43.3553 30.5306 43.4823 30.6872 43.4823H31.212C31.3686 43.4823 31.4956 43.3553 31.4956 43.1987Z" fill="white"/>
<path d="M43.4744 31.2147V30.6899C43.4744 30.5332 43.3474 30.4062 43.1908 30.4062H42.6659C42.5093 30.4062 42.3823 30.5332 42.3823 30.6899V31.2147C42.3823 31.3713 42.5093 31.4983 42.6659 31.4983H43.1908C43.3474 31.4983 43.4744 31.3713 43.4744 31.2147Z" fill="white"/>
<path d="M28.5046 22.0687V21.8673C28.5046 21.6214 28.3053 21.422 28.0593 21.422H27.8579C27.612 21.422 27.4126 21.6214 27.4126 21.8673V22.0687C27.4126 22.3147 27.612 22.514 27.8579 22.514H28.0593C28.3053 22.514 28.5046 22.3147 28.5046 22.0687Z" fill="white"/>
<path d="M40.8604 34.5262V33.3609C40.8604 33.1727 40.7078 33.0201 40.5196 33.0201H39.3543C39.1661 33.0201 39.0135 33.1727 39.0135 33.3609V34.5262C39.0135 34.7144 39.1661 34.867 39.3543 34.867H40.5196C40.7078 34.867 40.8604 34.7144 40.8604 34.5262Z" fill="white"/>
<path d="M38.2834 37.8377V36.0535C38.2834 35.8044 38.0815 35.6024 37.8323 35.6024H36.0482C35.7991 35.6024 35.5971 35.8044 35.5971 36.0535V37.8377C35.5971 38.0868 35.7991 38.2888 36.0482 38.2888H37.8323C38.0815 38.2888 38.2834 38.0868 38.2834 37.8377Z" fill="white"/>
<path d="M25.9721 43.5449L25.9707 42.3249C25.9704 42.1055 25.7924 41.9278 25.573 41.9281L24.3529 41.9295C24.1335 41.9297 23.9559 42.1078 23.9561 42.3272L23.9575 43.5472C23.9578 43.7666 24.1358 43.9443 24.3552 43.944L25.5753 43.9426C25.7947 43.9424 25.9723 43.7643 25.9721 43.5449Z" fill="white"/>
<path d="M28.7148 28.3202V27.5928C28.7148 27.3763 28.5394 27.2008 28.3229 27.2008H27.5955C27.379 27.2008 27.2035 27.3763 27.2035 27.5928V28.3202C27.2035 28.5367 27.379 28.7122 27.5955 28.7122H28.3229C28.5394 28.7122 28.7148 28.5367 28.7148 28.3202Z" fill="white"/>
<path d="M25.9145 31.4074L25.9134 30.4946C25.9131 30.222 25.6919 30.0014 25.4194 30.0017L24.5065 30.0027C24.234 30.003 24.0133 30.2242 24.0136 30.4968L24.0147 31.4096C24.015 31.6821 24.2362 31.9028 24.5087 31.9025L25.4215 31.9014C25.6941 31.9011 25.9148 31.6799 25.9145 31.4074Z" fill="white"/>
<path d="M31.832 25.3831V24.5365C31.832 24.2835 31.6269 24.0784 31.3739 24.0784H30.5273C30.2742 24.0784 30.0691 24.2835 30.0691 24.5365V25.3831C30.0691 25.6362 30.2742 25.8413 30.5273 25.8413H31.3739C31.6269 25.8413 31.832 25.6362 31.832 25.3831Z" fill="white"/>
<path d="M29.218 34.7072V33.1808C29.218 32.9068 28.9959 32.6847 28.7219 32.6847H27.1955C26.9215 32.6847 26.6994 32.9068 26.6994 33.1808V34.7072C26.6994 34.9812 26.9215 35.2033 27.1955 35.2033H28.7219C28.9959 35.2033 29.218 34.9812 29.218 34.7072Z" fill="white"/>
<path d="M32.2026 31.711V30.1934C32.2026 29.9209 31.9817 29.7 31.7092 29.7H30.1916C29.9191 29.7 29.6981 29.9209 29.6981 30.1934V31.711C29.6981 31.9835 29.9191 32.2045 30.1916 32.2045H31.7092C31.9817 32.2045 32.2026 31.9835 32.2026 31.711Z" fill="white"/>
<path d="M35.2068 28.7201V27.1938C35.2068 26.9198 34.9847 26.6976 34.7107 26.6976H33.1843C32.9103 26.6976 32.6882 26.9198 32.6882 27.1938V28.7201C32.6882 28.9941 32.9103 29.2163 33.1843 29.2163H34.7107C34.9847 29.2163 35.2068 28.9941 35.2068 28.7201Z" fill="white"/>
<path d="M43.936 25.5703V24.3503C43.936 24.1309 43.7582 23.953 43.5388 23.953H42.3187C42.0993 23.953 41.9215 24.1309 41.9215 24.3503V25.5703C41.9215 25.7897 42.0993 25.9675 42.3187 25.9675H43.5388C43.7582 25.9675 43.936 25.7897 43.936 25.5703Z" fill="white"/>
<path d="M26.3506 37.8765L26.3484 36.0102C26.3481 35.7606 26.1455 35.5585 25.8959 35.5587L24.0297 35.5609C23.78 35.5612 23.5779 35.7638 23.5782 36.0134L23.5804 37.8796C23.5806 38.1293 23.7832 38.3314 24.0329 38.3311L25.8991 38.329C26.1487 38.3287 26.3509 38.1261 26.3506 37.8765Z" fill="white"/>
<path d="M29.2603 40.8171V39.0639C29.2603 38.8294 29.0701 38.6393 28.8356 38.6393H27.0824C26.8479 38.6393 26.6578 38.8294 26.6578 39.0639V40.8171C26.6578 41.0517 26.8479 41.2418 27.0824 41.2418H28.8356C29.0701 41.2418 29.2603 41.0517 29.2603 40.8171Z" fill="white"/>
<path d="M23.6052 41.0439V38.8378C23.6052 38.5428 23.3661 38.3037 23.0711 38.3037H20.865C20.57 38.3037 20.3309 38.5428 20.3309 38.8378V41.0439C20.3309 41.3389 20.57 41.578 20.865 41.578H23.0711C23.3661 41.578 23.6052 41.3389 23.6052 41.0439Z" fill="white"/>
<path d="M32.5242 38.0522V35.8381C32.5242 35.5802 32.3151 35.3711 32.0572 35.3711H29.8431C29.5852 35.3711 29.3761 35.5802 29.3761 35.8381V38.0522C29.3761 38.3101 29.5852 38.5192 29.8431 38.5192H32.0572C32.3151 38.5192 32.5242 38.3101 32.5242 38.0522Z" fill="white"/>
<path d="M35.606 35.1557V32.7316C35.606 32.4854 35.4064 32.2858 35.1601 32.2858H32.736C32.4898 32.2858 32.2902 32.4854 32.2902 32.7316V35.1557C32.2902 35.402 32.4898 35.6016 32.736 35.6016H35.1601C35.4064 35.6016 35.606 35.402 35.606 35.1557Z" fill="white"/>
<path d="M38.5146 32.0589V29.8448C38.5146 29.5869 38.3056 29.3778 38.0476 29.3778H35.8336C35.5757 29.3778 35.3666 29.5869 35.3666 29.8448V32.0589C35.3666 32.3168 35.5757 32.5259 35.8336 32.5259H38.0476C38.3056 32.5259 38.5146 32.3168 38.5146 32.0589Z" fill="white"/>
<path d="M38.3259 25.8509V24.0694C38.3259 23.7964 38.1046 23.5751 37.8316 23.5751H36.0501C35.777 23.5751 35.5557 23.7964 35.5557 24.0694V25.8509C35.5557 26.124 35.777 26.3453 36.0501 26.3453H37.8316C38.1046 26.3453 38.3259 26.124 38.3259 25.8509Z" fill="white"/>
<path d="M41.2383 28.8331V27.0799C41.2383 26.8454 41.0482 26.6553 40.8137 26.6553H39.0604C38.8259 26.6553 38.6358 26.8454 38.6358 27.0799V28.8331C38.6358 29.0677 38.8259 29.2578 39.0604 29.2578H40.8137C41.0482 29.2578 41.2383 29.0677 41.2383 28.8331Z" fill="white"/>
<path d="M34.7063 20.7158H33.1888C32.9163 20.7158 32.6953 20.9368 32.6953 21.2093V22.7268C32.6953 22.9994 32.9163 23.2203 33.1888 23.2203H34.7063C34.9789 23.2203 35.1998 22.9994 35.1998 22.7268V21.2093C35.1998 20.9368 34.9789 20.7158 34.7063 20.7158Z" fill="white"/>
<path d="M3.42095 10.9158H4.58624C4.77444 10.9158 4.927 10.7632 4.927 10.575V9.40972C4.927 9.22152 4.77444 9.06896 4.58624 9.06896H3.42095C3.23275 9.06896 3.08019 9.22152 3.08019 9.40972V10.575C3.08019 10.7632 3.23275 10.9158 3.42095 10.9158Z" fill="white"/>
<path d="M0.746267 13.5298H1.27108C1.42771 13.5298 1.55469 13.4028 1.55469 13.2462V12.7214C1.55469 12.5647 1.42771 12.4378 1.27108 12.4378H0.746267C0.589634 12.4378 0.462657 12.5647 0.462657 12.7214V13.2462C0.462657 13.4028 0.589634 13.5298 0.746267 13.5298Z" fill="white"/>
<path d="M12.7231 1.55457H13.2479C13.4045 1.55457 13.5315 1.42759 13.5315 1.27096V0.746145C13.5315 0.589512 13.4045 0.462535 13.2479 0.462535H12.7231C12.5664 0.462535 12.4395 0.589512 12.4395 0.746145V1.27096C12.4395 1.42759 12.5664 1.55457 12.7231 1.55457Z" fill="white"/>
<path d="M15.8801 22.5132H16.0816C16.3275 22.5132 16.5269 22.3138 16.5269 22.0679V21.8664C16.5269 21.6205 16.3275 21.4212 16.0816 21.4212H15.8801C15.6342 21.4212 15.4348 21.6205 15.4348 21.8664V22.0679C15.4348 22.3138 15.6342 22.5132 15.8801 22.5132Z" fill="white"/>
<path d="M9.40972 4.92517H10.575C10.7632 4.92517 10.9158 4.77261 10.9158 4.58441V3.41912C10.9158 3.23092 10.7632 3.07836 10.575 3.07836H9.40972C9.22152 3.07836 9.06896 3.23092 9.06896 3.41912V4.58441C9.06896 4.77261 9.22152 4.92517 9.40972 4.92517Z" fill="white"/>
<path d="M6.10533 8.33362H7.88947C8.13861 8.33362 8.34058 8.13165 8.34058 7.88251V6.09837C8.34058 5.84923 8.13861 5.64726 7.88947 5.64726H6.10533C5.85619 5.64726 5.65422 5.84923 5.65422 6.09837V7.88251C5.65422 8.13165 5.85619 8.33362 6.10533 8.33362Z" fill="white"/>
<path d="M0.397363 19.9785L1.61739 19.9799C1.83679 19.9801 2.01485 19.8025 2.01511 19.5831L2.01651 18.3631C2.01676 18.1437 1.83911 17.9656 1.61971 17.9653L0.399683 17.9639C0.180283 17.9637 0.00221955 18.1413 0.00196682 18.3607L0.000561451 19.5808C0.00030872 19.8002 0.177963 19.9782 0.397363 19.9785Z" fill="white"/>
<path d="M15.6177 16.7388H16.3451C16.5616 16.7388 16.7371 16.5633 16.7371 16.3468V15.6194C16.7371 15.4029 16.5616 15.2274 16.3451 15.2274H15.6177C15.4012 15.2274 15.2257 15.4029 15.2257 15.6194V16.3468C15.2257 16.5633 15.4012 16.7388 15.6177 16.7388Z" fill="white"/>
<path d="M12.5278 19.9214L13.4406 19.9224C13.7131 19.9227 13.9343 19.702 13.9347 19.4295L13.9357 18.5167C13.936 18.2441 13.7153 18.0229 13.4428 18.0226L12.53 18.0216C12.2574 18.0213 12.0362 18.2419 12.0359 18.5145L12.0349 19.4273C12.0346 19.6998 12.2552 19.921 12.5278 19.9214Z" fill="white"/>
<path d="M18.5334 13.9341H19.4462C19.7188 13.9341 19.9397 13.7131 19.9397 13.4406V12.5278C19.9397 12.2552 19.7188 12.0343 19.4462 12.0343H18.5334C18.2609 12.0343 18.0399 12.2552 18.0399 12.5278V13.4406C18.0399 13.7131 18.2609 13.9341 18.5334 13.9341Z" fill="white"/>
<path d="M9.23313 17.2357H10.7507C11.0232 17.2357 11.2441 17.0148 11.2441 16.7422V15.2247C11.2441 14.9522 11.0232 14.7312 10.7507 14.7312H9.23313C8.96058 14.7312 8.73964 14.9522 8.73964 15.2247V16.7422C8.73964 17.0148 8.96058 17.2357 9.23313 17.2357Z" fill="white"/>
<path d="M12.2268 14.2361H13.7443C14.0169 14.2361 14.2378 14.0151 14.2378 13.7426V12.2251C14.2378 11.9525 14.0169 11.7316 13.7443 11.7316H12.2268C11.9542 11.7316 11.7333 11.9525 11.7333 12.2251V13.7426C11.7333 14.0151 11.9542 14.2361 12.2268 14.2361Z" fill="white"/>
<path d="M15.2177 11.2512H16.7441C17.0181 11.2512 17.2402 11.0291 17.2402 10.7551V9.22873C17.2402 8.95472 17.0181 8.7326 16.7441 8.7326H15.2177C14.9437 8.7326 14.7216 8.95472 14.7216 9.22873V10.7551C14.7216 11.0291 14.9437 11.2512 15.2177 11.2512Z" fill="white"/>
<path d="M18.3798 2.01636H19.5998C19.8192 2.01636 19.9971 1.8385 19.9971 1.6191V0.399071C19.9971 0.179671 19.8192 0.0018115 19.5998 0.0018115H18.3798C18.1604 0.0018115 17.9825 0.179671 17.9825 0.399071V1.6191C17.9825 1.8385 18.1604 2.01636 18.3798 2.01636Z" fill="white"/>
<path d="M6.14862 20.2295L7.84448 20.2315C8.07168 20.2317 8.25607 20.0478 8.25633 19.8205L8.25829 18.1247C8.25855 17.8975 8.07458 17.7131 7.84738 17.7128L6.15152 17.7109C5.92432 17.7106 5.73993 17.8946 5.73966 18.1218L5.73771 19.8176C5.73745 20.0448 5.92142 20.2292 6.14862 20.2295Z" fill="white"/>
<path d="M3.12682 17.2852H4.88006C5.11458 17.2852 5.30469 17.095 5.30469 16.8605V15.1073C5.30469 14.8728 5.11458 14.6827 4.88006 14.6827H3.12682C2.89231 14.6827 2.7022 14.8728 2.7022 15.1073L2.7022 16.8605C2.7022 17.095 2.89231 17.2852 3.12682 17.2852Z" fill="white"/>
<path d="M2.89993 23.6052H5.10604C5.40102 23.6052 5.64014 23.3661 5.64014 23.0711V20.865C5.64014 20.57 5.40102 20.3309 5.10604 20.3309H2.89993C2.60496 20.3309 2.36584 20.57 2.36584 20.865L2.36584 23.0711C2.36584 23.3661 2.60496 23.6052 2.89993 23.6052Z" fill="white"/>
<path d="M5.89096 14.5582H8.10502C8.36294 14.5582 8.57202 14.3491 8.57202 14.0912V11.8772C8.57202 11.6193 8.36294 11.4102 8.10502 11.4102H5.89096C5.63305 11.4102 5.42396 11.6193 5.42396 11.8772V14.0912C5.42396 14.3491 5.63305 14.5582 5.89096 14.5582Z" fill="white"/>
<path d="M8.78041 11.6503H11.2046C11.4508 11.6503 11.6504 11.4507 11.6504 11.2045V8.78029C11.6504 8.53408 11.4508 8.33448 11.2046 8.33448H8.78041C8.5342 8.33448 8.3346 8.53408 8.3346 8.78029V11.2045C8.3346 11.4507 8.5342 11.6503 8.78041 11.6503Z" fill="white"/>
<path d="M11.879 8.56409H14.0931C14.351 8.56409 14.5601 8.355 14.5601 8.09709V5.88303C14.5601 5.62511 14.351 5.41603 14.0931 5.41603H11.879C11.6211 5.41603 11.412 5.62511 11.412 5.88303V8.09709C11.412 8.355 11.6211 8.56409 11.879 8.56409Z" fill="white"/>
<path d="M18.1019 8.37244H19.8781C20.1506 8.37244 20.3716 8.1515 20.3716 7.87895V6.10276C20.3716 5.83022 20.1506 5.60928 19.8781 5.60928H18.1019C17.8294 5.60928 17.6084 5.83022 17.6084 6.10276V7.87895C17.6084 8.1515 17.8294 8.37244 18.1019 8.37244Z" fill="white"/>
<path d="M15.1046 5.30212H16.8578C17.0924 5.30212 17.2825 5.11201 17.2825 4.8775V3.12426C17.2825 2.88975 17.0924 2.69963 16.8578 2.69963L15.1046 2.69963C14.8701 2.69963 14.68 2.88975 14.68 3.12426V4.8775C14.68 5.11201 14.8701 5.30212 15.1046 5.30212Z" fill="white"/>
<path d="M20.7158 9.23325V10.7508C20.7158 11.0233 20.9368 11.2443 21.2093 11.2443H22.7268C22.9994 11.2443 23.2203 11.0233 23.2203 10.7508V9.23325C23.2203 8.9607 22.9994 8.73976 22.7268 8.73976H21.2093C20.9368 8.73976 20.7158 8.9607 20.7158 9.23325Z" fill="white"/>
<path d="M33.0247 3.41912V4.58441C33.0247 4.77261 33.1772 4.92517 33.3654 4.92517H34.5307C34.7189 4.92517 34.8715 4.77261 34.8715 4.58441V3.41912C34.8715 3.23092 34.7189 3.07836 34.5307 3.07836H33.3654C33.1772 3.07836 33.0247 3.23092 33.0247 3.41912Z" fill="white"/>
<path d="M30.4045 0.746145V1.27096C30.4045 1.42759 30.5315 1.55457 30.6882 1.55457H31.213C31.3696 1.55457 31.4966 1.42759 31.4966 1.27096V0.746145C31.4966 0.589512 31.3696 0.462535 31.213 0.462535H30.6882C30.5315 0.462535 30.4045 0.589512 30.4045 0.746145Z" fill="white"/>
<path d="M42.3831 12.7214V13.2462C42.3831 13.4028 42.51 13.5298 42.6667 13.5298H43.1915C43.3481 13.5298 43.4751 13.4028 43.4751 13.2462V12.7214C43.4751 12.5647 43.3481 12.4378 43.1915 12.4378H42.6667C42.51 12.4378 42.3831 12.5647 42.3831 12.7214Z" fill="white"/>
<path d="M21.4219 15.8828V16.0842C21.4219 16.3302 21.6212 16.5295 21.8672 16.5295H22.0686C22.3145 16.5295 22.5139 16.3302 22.5139 16.0842V15.8828C22.5139 15.6369 22.3145 15.4375 22.0686 15.4375H21.8672C21.6212 15.4375 21.4219 15.6369 21.4219 15.8828Z" fill="white"/>
<path d="M39.0134 9.40972V10.575C39.0134 10.7632 39.166 10.9158 39.3542 10.9158H40.5195C40.7077 10.9158 40.8602 10.7632 40.8602 10.575V9.40972C40.8602 9.22152 40.7077 9.06896 40.5195 9.06896H39.3542C39.166 9.06896 39.0134 9.22152 39.0134 9.40972Z" fill="white"/>
<path d="M35.5972 6.09837V7.88251C35.5972 8.13165 35.7991 8.33362 36.0483 8.33362H37.8324C38.0816 8.33362 38.2835 8.13165 38.2835 7.88251V6.09837C38.2835 5.84923 38.0816 5.64726 37.8324 5.64726H36.0483C35.7991 5.64726 35.5972 5.84923 35.5972 6.09837Z" fill="white"/>
<path d="M23.9574 0.397241L23.956 1.61727C23.9558 1.83667 24.1334 2.01473 24.3528 2.01498L25.5729 2.01639C25.7923 2.01664 25.9703 1.83899 25.9706 1.61959L25.972 0.399561C25.9722 0.180161 25.7946 0.00209748 25.5752 0.00184475L24.3551 0.00043938C24.1357 0.000186649 23.9577 0.177841 23.9574 0.397241Z" fill="white"/>
<path d="M27.2034 15.6194V16.3468C27.2034 16.5633 27.3789 16.7388 27.5953 16.7388H28.3228C28.5392 16.7388 28.7147 16.5633 28.7147 16.3468V15.6194C28.7147 15.4029 28.5392 15.2274 28.3228 15.2274H27.5953C27.3789 15.2274 27.2034 15.4029 27.2034 15.6194Z" fill="white"/>
<path d="M24.0146 12.5261L24.0135 13.4389C24.0132 13.7114 24.2339 13.9326 24.5064 13.9329L25.4192 13.934C25.6918 13.9343 25.913 13.7136 25.9133 13.4411L25.9143 12.5283C25.9147 12.2557 25.694 12.0345 25.4214 12.0342L24.5086 12.0332C24.2361 12.0328 24.0149 12.2535 24.0146 12.5261Z" fill="white"/>
<path d="M30.0002 18.515V19.4278C30.0002 19.7003 30.2212 19.9213 30.4937 19.9213H31.4065C31.6791 19.9213 31.9 19.7003 31.9 19.4278V18.515C31.9 18.2424 31.6791 18.0215 31.4065 18.0215H30.4937C30.2212 18.0215 30.0002 18.2424 30.0002 18.515Z" fill="white"/>
<path d="M26.6995 9.22873V10.7551C26.6995 11.0291 26.9216 11.2512 27.1956 11.2512H28.722C28.996 11.2512 29.2181 11.0291 29.2181 10.7551V9.22873C29.2181 8.95472 28.996 8.7326 28.722 8.7326H27.1956C26.9216 8.7326 26.6995 8.95472 26.6995 9.22873Z" fill="white"/>
<path d="M29.5649 12.1447V13.8238C29.5649 14.1251 29.8092 14.3694 30.1105 14.3694H31.7896C32.0909 14.3694 32.3352 14.1251 32.3352 13.8238V12.1447C32.3352 11.8434 32.0909 11.5992 31.7896 11.5992H30.1105C29.8092 11.5992 29.5649 11.8434 29.5649 12.1447Z" fill="white"/>
<path d="M32.6953 15.2247V16.7422C32.6953 17.0148 32.9163 17.2357 33.1888 17.2357H34.7063C34.9789 17.2357 35.1998 17.0148 35.1998 16.7422V15.2247C35.1998 14.9522 34.9789 14.7312 34.7063 14.7312H33.1888C32.9163 14.7312 32.6953 14.9522 32.6953 15.2247Z" fill="white"/>
<path d="M41.9214 18.3614V19.5814C41.9214 19.8008 42.0992 19.9786 42.3186 19.9786H43.5387C43.7581 19.9786 43.9359 19.8008 43.9359 19.5814V18.3614C43.9359 18.142 43.7581 17.9641 43.5387 17.9641H42.3186C42.0992 17.9641 41.9214 18.142 41.9214 18.3614Z" fill="white"/>
<path d="M23.5806 6.05604L23.5784 7.92228C23.5781 8.1719 23.7802 8.3745 24.0299 8.37479L25.8961 8.37694C26.1457 8.37723 26.3483 8.17509 26.3486 7.92547L26.3508 6.05923C26.3511 5.8096 26.1489 5.60701 25.8993 5.60672L24.0331 5.60457C23.7834 5.60428 23.5808 5.80641 23.5806 6.05604Z" fill="white"/>
<path d="M26.658 3.12426V4.8775C26.658 5.11201 26.8481 5.30212 27.0826 5.30212H28.8358C29.0703 5.30212 29.2604 5.11201 29.2604 4.8775V3.12426C29.2604 2.88975 29.0703 2.69963 28.8358 2.69963H27.0826C26.8481 2.69963 26.658 2.88975 26.658 3.12426Z" fill="white"/>
<path d="M20.3308 2.89822V5.10433C20.3308 5.39931 20.5699 5.63843 20.8649 5.63843H23.071C23.366 5.63843 23.6051 5.39931 23.6051 5.10433V2.89822C23.6051 2.60325 23.366 2.36413 23.071 2.36413H20.8649C20.5699 2.36413 20.3308 2.60325 20.3308 2.89822Z" fill="white"/>
<path d="M29.376 5.88303V8.09709C29.376 8.355 29.5851 8.56409 29.843 8.56409H32.057C32.315 8.56409 32.524 8.355 32.524 8.09709V5.88303C32.524 5.62511 32.315 5.41603 32.057 5.41603H29.843C29.5851 5.41603 29.376 5.62511 29.376 5.88303Z" fill="white"/>
<path d="M32.29 8.78029V11.2045C32.29 11.4507 32.4896 11.6503 32.7359 11.6503H35.16C35.4062 11.6503 35.6058 11.4507 35.6058 11.2045V8.78029C35.6058 8.53408 35.4062 8.33448 35.16 8.33448H32.7359C32.4896 8.33448 32.29 8.53408 32.29 8.78029Z" fill="white"/>
<path d="M35.3667 11.8772V14.0912C35.3667 14.3491 35.5758 14.5582 35.8337 14.5582H38.0478C38.3057 14.5582 38.5148 14.3491 38.5148 14.0912V11.8772C38.5148 11.6193 38.3057 11.4102 38.0478 11.4102H35.8337C35.5758 11.4102 35.3667 11.6193 35.3667 11.8772Z" fill="white"/>
<path d="M35.5591 18.0841V19.8603C35.5591 20.1328 35.78 20.3538 36.0526 20.3538H37.8288C38.1013 20.3538 38.3222 20.1328 38.3222 19.8603V18.0841C38.3222 17.8115 38.1013 17.5906 37.8288 17.5906H36.0526C35.78 17.5906 35.5591 17.8115 35.5591 18.0841Z" fill="white"/>
<path d="M38.6357 15.1073V16.8605C38.6357 17.095 38.8259 17.2852 39.0604 17.2852H40.8136C41.0481 17.2852 41.2382 17.095 41.2382 16.8605V15.1073C41.2382 14.8728 41.0481 14.6827 40.8136 14.6827H39.0604C38.8259 14.6827 38.6357 14.8728 38.6357 15.1073Z" fill="white"/>
<path d="M38.2993 20.865V23.0711C38.2993 23.3661 38.5384 23.6052 38.8334 23.6052H41.0395C41.3345 23.6052 41.5736 23.3661 41.5736 23.0711V20.865C41.5736 20.57 41.3345 20.3309 41.0395 20.3309H38.8334C38.5384 20.3309 38.2993 20.57 38.2993 20.865Z" fill="white"/>
</svg>
