<svg xmlns="http://www.w3.org/2000/svg" width="186" height="102.4" viewBox="0 0 186 102.4">
  <g id="PC_Logo_Temp" data-name="PC Logo – Temp" transform="translate(-35 -34.563)">
    <path id="Path_36048" data-name="Path 36048" d="M387.379,440.242v2.337h-3.521v9.846h-2.4v-9.846h-3.538v-2.337Zm-28.412,12.183h2.386v-4.957h3.922v-2.337h-3.922v-2.553h7.076v-2.337h-9.462Zm-13.5-12.183,3.972,12.183h-2.42l-.567-1.736h-4.506l-.567,1.736h-2.37l4-12.183Zm.234,8.144-1.5-4.622-1.5,4.622Zm-18.158-.017,2.6,4.056h-2.8l-2.369-3.622h-2.236v3.622H320.35V440.242h5.174a4.182,4.182,0,0,1,4.389,4.289A4.111,4.111,0,0,1,327.543,448.369Zm-.017-3.838a1.866,1.866,0,0,0-1.953-1.953h-2.837v3.905h2.82A1.879,1.879,0,0,0,327.526,444.531Zm-22.216-2.119a3.545,3.545,0,0,1,3.138,1.719l1.952-1.452a5.948,5.948,0,0,0-5.073-2.62,6.275,6.275,0,0,0,0,12.55,5.921,5.921,0,0,0,5.073-2.636l-1.952-1.436a3.584,3.584,0,0,1-3.138,1.719,3.924,3.924,0,0,1,0-7.844Zm-25.3,10.013h9.462v-2.337h-7.093v-2.62h3.939v-2.337h-3.939v-2.553h7.093v-2.337h-9.462Zm-12.987-7.076c-1.168-.351-2.353-.2-3.138-.484a1.148,1.148,0,0,1-.851-1.085c0-.818.735-1.452,1.92-1.452,1.168,0,1.969.584,2,1.469h2.387c0-2.219-1.853-3.738-4.355-3.738-2.554,0-4.323,1.619-4.323,3.839a3.192,3.192,0,0,0,2.47,3.221c1.085.3,2.369.217,3.154.5a1.191,1.191,0,0,1,.867,1.151c0,.885-.751,1.568-2.036,1.568-1.252,0-2.186-.651-2.186-1.619h-2.369c0,2.3,1.936,3.888,4.522,3.888,2.67,0,4.439-1.668,4.439-3.971A3.294,3.294,0,0,0,267.02,445.349Zm-19.891-5.107,3.972,12.183h-2.42l-.568-1.736h-4.506l-.568,1.736h-2.369l4-12.183Zm.234,8.144-1.5-4.622-1.5,4.622Zm-19.057-3.254h-4.973v-4.89h-2.386v12.183h2.386v-4.957h4.973v4.957h2.386V440.242h-2.386Zm-17.265-.517a4.241,4.241,0,0,1-4.49,4.39h-2.787v3.421h-2.386V440.242h5.173A4.237,4.237,0,0,1,211.042,444.614Zm-2.387,0a1.949,1.949,0,0,0-2.052-2.036h-2.837v4.089H206.6A1.963,1.963,0,0,0,208.655,444.614Z" transform="translate(-166.379 -315.644)" fill="#051736"/>
    <path id="Path_36049" data-name="Path 36049" d="M299.849,352.57v-2.326a.4.4,0,0,1,.4-.4h2.326a.4.4,0,0,1,.4.4v2.326a.4.4,0,0,1-.4.4h-2.326A.4.4,0,0,1,299.849,352.57Zm-3.468-4.754H297.5a.319.319,0,0,0,.319-.32v-1.117a.319.319,0,0,0-.319-.319h-1.117a.319.319,0,0,0-.32.319V347.5A.32.32,0,0,0,296.381,347.815Zm17.906,17.9h1.117a.319.319,0,0,0,.319-.32v-1.117a.319.319,0,0,0-.319-.32h-1.117a.319.319,0,0,0-.319.32V365.4A.319.319,0,0,0,314.288,365.717Zm13.589-22.358h.774a.516.516,0,0,0,.516-.516v-.774a.516.516,0,0,0-.516-.516h-.774a.516.516,0,0,0-.516.516v.774A.516.516,0,0,0,327.877,343.359Zm-8.925-8.94h.774a.516.516,0,0,0,.516-.516v-.774a.516.516,0,0,0-.516-.516h-.774a.516.516,0,0,0-.516.516v.774A.516.516,0,0,0,318.952,334.42Zm-9.74,27.513h2.326a.405.405,0,0,0,.4-.4V359.2a.4.4,0,0,0-.4-.4h-2.326a.4.4,0,0,0-.4.4v2.326A.405.405,0,0,0,309.212,361.933Zm-4.953-3.91h3.261a.5.5,0,0,0,.5-.5V354.26a.5.5,0,0,0-.5-.5h-3.261a.5.5,0,0,0-.5.5v3.261A.5.5,0,0,0,304.258,358.023Zm-8.452-18.45,2.27,0a.432.432,0,0,0,.432-.432l0-2.271a.432.432,0,0,0-.433-.432l-2.27,0a.433.433,0,0,0-.432.433l0,2.27A.432.432,0,0,0,295.807,339.573Zm22.774,4.074H320.1a.433.433,0,0,0,.433-.433V341.7a.433.433,0,0,0-.433-.434h-1.516a.433.433,0,0,0-.434.434v1.516A.433.433,0,0,0,318.581,343.647Zm-4.636-4.223,1.806,0a.516.516,0,0,0,.516-.516l0-1.806a.517.517,0,0,0-.517-.516l-1.806,0a.517.517,0,0,0-.516.517l0,1.806A.516.516,0,0,0,313.945,339.425Zm8.927,8.931h1.806a.515.515,0,0,0,.516-.516v-1.806a.516.516,0,0,0-.516-.516h-1.806a.516.516,0,0,0-.516.516v1.806A.516.516,0,0,0,322.873,348.356Zm-13.852-4.029h2.709a.517.517,0,0,0,.516-.516V341.1a.516.516,0,0,0-.516-.516h-2.709a.516.516,0,0,0-.516.516v2.709A.516.516,0,0,0,309.021,344.327Zm0-8.94h2.709a.516.516,0,0,0,.516-.516v-2.709a.516.516,0,0,0-.516-.516h-2.709a.516.516,0,0,0-.516.516v2.709A.516.516,0,0,0,309.021,335.387Zm4.471,13.421H316.2a.516.516,0,0,0,.516-.516v-2.709a.517.517,0,0,0-.516-.516h-2.709a.517.517,0,0,0-.516.516v2.709A.516.516,0,0,0,313.492,348.808Zm4.492,4.47h2.709a.516.516,0,0,0,.516-.516v-2.709a.516.516,0,0,0-.516-.516h-2.709a.516.516,0,0,0-.516.516v2.709A.516.516,0,0,0,317.984,353.277Zm4.656,13.13h2.27a.432.432,0,0,0,.432-.432V363.7a.432.432,0,0,0-.432-.432h-2.27a.432.432,0,0,0-.432.432v2.27A.432.432,0,0,0,322.641,366.407ZM304.15,340.264l3.484,0a.516.516,0,0,0,.516-.517l0-3.483a.516.516,0,0,0-.516-.516l-3.484,0a.515.515,0,0,0-.515.516l0,3.483A.515.515,0,0,0,304.15,340.264Zm-4.33,4.261h3.192a.472.472,0,0,0,.473-.473V340.86a.473.473,0,0,0-.473-.473H299.82a.473.473,0,0,0-.473.473v3.192A.473.473,0,0,0,299.82,344.525Zm-.145-8.751h3.483a.516.516,0,0,0,.516-.516v-3.483a.516.516,0,0,0-.516-.516h-3.483a.516.516,0,0,0-.516.516v3.483A.516.516,0,0,0,299.675,335.774Zm4.247,13.646h3.935a.516.516,0,0,0,.516-.516V344.97a.516.516,0,0,0-.516-.516h-3.935a.516.516,0,0,0-.516.516V348.9A.516.516,0,0,0,303.921,349.421Zm4.316,4.62h4.276a.5.5,0,0,0,.5-.5v-4.276a.5.5,0,0,0-.5-.5h-4.276a.5.5,0,0,0-.5.5v4.276A.5.5,0,0,0,308.237,354.04Zm4.642,4.334h3.935a.516.516,0,0,0,.516-.516v-3.935a.516.516,0,0,0-.516-.516h-3.935a.516.516,0,0,0-.516.516v3.935A.516.516,0,0,0,312.879,358.374Zm9.348-.419h3.1a.515.515,0,0,0,.516-.516v-3.1a.516.516,0,0,0-.516-.516h-3.1a.517.517,0,0,0-.516.516v3.1A.516.516,0,0,0,322.227,357.954Zm-4.485,4.48h3.192a.473.473,0,0,0,.473-.473v-3.192a.472.472,0,0,0-.473-.473h-3.192a.473.473,0,0,0-.473.473v3.192A.473.473,0,0,0,317.742,362.434Zm8.782.188h3.483a.516.516,0,0,0,.516-.516v-3.484a.516.516,0,0,0-.516-.516h-3.483a.516.516,0,0,0-.516.516v3.484A.516.516,0,0,0,326.524,362.622Zm3.612-9.861v-2.709a.516.516,0,0,0-.516-.516h-2.709a.516.516,0,0,0-.516.516v2.709a.516.516,0,0,0,.516.516h2.709A.516.516,0,0,0,330.137,352.761Zm17.586,8.767V359.2a.4.4,0,0,0-.4-.4h-2.326a.4.4,0,0,0-.4.4v2.326a.405.405,0,0,0,.4.4h2.326A.405.405,0,0,0,347.722,361.528Zm-5.156,3.87v-1.117a.319.319,0,0,0-.319-.32H341.13a.319.319,0,0,0-.319.32V365.4a.319.319,0,0,0,.319.32h1.117A.319.319,0,0,0,342.566,365.4Zm17.9-17.9v-1.117a.319.319,0,0,0-.319-.319h-1.117a.319.319,0,0,0-.319.319V347.5a.319.319,0,0,0,.319.32h1.117A.319.319,0,0,0,360.463,347.5ZM338.121,333.9v-.774a.516.516,0,0,0-.516-.516h-.774a.516.516,0,0,0-.516.516v.774a.516.516,0,0,0,.516.516h.774A.516.516,0,0,0,338.121,333.9Zm-8.982,8.929v-.753a.5.5,0,0,0-.5-.5h-.753a.5.5,0,0,0-.5.5v.753a.5.5,0,0,0,.5.5h.753A.5.5,0,0,0,329.139,342.832Zm27.542,9.737v-2.326a.4.4,0,0,0-.4-.4H353.95a.4.4,0,0,0-.4.4v2.326a.4.4,0,0,0,.4.4h2.326A.4.4,0,0,0,356.681,352.57Zm-3.912,4.951V354.26a.5.5,0,0,0-.5-.5h-3.261a.5.5,0,0,0-.5.5v3.261a.5.5,0,0,0,.5.5h3.261A.5.5,0,0,0,352.769,357.521Zm-18.448,8.452,0-2.27a.432.432,0,0,0-.433-.432l-2.27,0a.432.432,0,0,0-.432.433l0,2.27a.432.432,0,0,0,.432.432l2.271,0A.432.432,0,0,0,334.32,365.973Zm4.089-22.758V341.7a.433.433,0,0,0-.434-.434H336.46a.433.433,0,0,0-.433.434v1.516a.433.433,0,0,0,.433.433h1.516A.433.433,0,0,0,338.41,343.214Zm-4.238,4.624,0-1.806a.516.516,0,0,0-.517-.515l-1.806,0a.516.516,0,0,0-.516.516l0,1.806a.515.515,0,0,0,.516.515l1.806,0A.517.517,0,0,0,334.171,347.839Zm8.833-9v-1.676a.479.479,0,0,0-.479-.479h-1.675a.479.479,0,0,0-.479.479v1.676a.478.478,0,0,0,.479.479h1.675A.478.478,0,0,0,343,338.842Zm-3.916,13.919v-2.709a.516.516,0,0,0-.516-.516h-2.709a.516.516,0,0,0-.516.516v2.709a.516.516,0,0,0,.516.516h2.709A.516.516,0,0,0,339.089,352.761Zm-8.957,0v-2.709a.516.516,0,0,0-.516-.516h-2.709a.516.516,0,0,0-.516.516v2.709a.516.516,0,0,0,.516.516h2.709A.516.516,0,0,0,330.132,352.761Zm13.427-4.469v-2.709a.517.517,0,0,0-.516-.516h-2.709a.517.517,0,0,0-.516.516v2.709a.516.516,0,0,0,.516.516h2.709A.516.516,0,0,0,343.559,348.292Zm4.466-4.481V341.1a.516.516,0,0,0-.515-.516H344.8a.516.516,0,0,0-.516.516v2.709a.516.516,0,0,0,.516.516h2.709A.516.516,0,0,0,348.025,343.81Zm13.128-4.671v-2.27a.433.433,0,0,0-.432-.432H358.45a.433.433,0,0,0-.432.432v2.27a.432.432,0,0,0,.432.432h2.271A.432.432,0,0,0,361.154,339.139Zm-26.142,18.49,0-3.483a.516.516,0,0,0-.517-.516l-3.483,0a.515.515,0,0,0-.516.517l0,3.483a.516.516,0,0,0,.517.516l3.483,0A.517.517,0,0,0,335.011,357.63Zm4.276,4.332v-3.192a.473.473,0,0,0-.473-.473h-3.192a.472.472,0,0,0-.473.473v3.192a.473.473,0,0,0,.473.473h3.192A.473.473,0,0,0,339.287,361.961Zm-8.769.146v-3.484a.516.516,0,0,0-.516-.516h-3.484a.516.516,0,0,0-.516.516v3.484a.515.515,0,0,0,.516.516H330A.515.515,0,0,0,330.518,362.107Zm13.653-4.249v-3.935a.516.516,0,0,0-.516-.516h-3.935a.516.516,0,0,0-.516.516v3.935a.516.516,0,0,0,.516.516h3.935A.516.516,0,0,0,344.172,357.858Zm4.616-4.314v-4.276a.5.5,0,0,0-.5-.5h-4.276a.5.5,0,0,0-.5.5v4.276a.5.5,0,0,0,.5.5h4.276A.5.5,0,0,0,348.788,353.544Zm4.332-4.64V344.97a.516.516,0,0,0-.516-.516H348.67a.516.516,0,0,0-.516.516V348.9a.516.516,0,0,0,.516.516H352.6A.516.516,0,0,0,353.12,348.9Zm-.419-9.352v-3.1a.515.515,0,0,0-.516-.516h-3.1a.515.515,0,0,0-.516.516v3.1a.516.516,0,0,0,.516.516h3.1A.516.516,0,0,0,352.7,339.552Zm4.482,4.5V340.86a.473.473,0,0,0-.473-.473h-3.193a.473.473,0,0,0-.473.473v3.192a.473.473,0,0,0,.473.473h3.193A.473.473,0,0,0,357.183,344.052Zm.188-8.794v-3.483a.516.516,0,0,0-.516-.516h-3.483a.516.516,0,0,0-.516.516v3.483a.516.516,0,0,0,.516.516h3.483A.516.516,0,0,0,357.371,335.258Zm-9.861-3.612H344.8a.516.516,0,0,0-.516.516v2.709a.516.516,0,0,0,.516.516h2.709a.516.516,0,0,0,.515-.516v-2.709A.515.515,0,0,0,347.51,331.646Zm-47.661-17.183v2.326a.4.4,0,0,0,.4.4h2.326a.4.4,0,0,0,.4-.4v-2.326a.4.4,0,0,0-.4-.4h-2.326A.4.4,0,0,0,299.849,314.463Zm-3.787,5.074v1.117a.32.32,0,0,0,.32.32H297.5a.319.319,0,0,0,.319-.32v-1.117a.319.319,0,0,0-.319-.32h-1.117A.32.32,0,0,0,296.062,319.537Zm17.907-17.9v1.117a.319.319,0,0,0,.319.32h1.117a.319.319,0,0,0,.319-.32v-1.117a.319.319,0,0,0-.319-.319h-1.117A.319.319,0,0,0,313.969,301.635Zm13.392,22.555v.774a.516.516,0,0,0,.516.516h.774a.516.516,0,0,0,.516-.516v-.774a.516.516,0,0,0-.516-.516h-.774A.516.516,0,0,0,327.361,324.19Zm-8.9,8.951v.752a.5.5,0,0,0,.5.5h.753a.5.5,0,0,0,.5-.5v-.752a.5.5,0,0,0-.5-.5h-.753A.5.5,0,0,0,318.461,333.141Zm-9.654-27.636v2.326a.4.4,0,0,0,.4.4h2.326a.4.4,0,0,0,.4-.4v-2.326a.4.4,0,0,0-.4-.4h-2.326A.4.4,0,0,0,308.807,305.505Zm-5.05,4.007v3.261a.5.5,0,0,0,.5.5h3.261a.5.5,0,0,0,.5-.5v-3.261a.5.5,0,0,0-.5-.5h-3.261A.5.5,0,0,0,303.757,309.512Zm-8.384,18.38,0,2.27a.433.433,0,0,0,.432.433l2.27,0a.433.433,0,0,0,.433-.432l0-2.27a.432.432,0,0,0-.432-.433l-2.27,0A.433.433,0,0,0,295.374,327.892Zm22.774-4.073v1.516a.433.433,0,0,0,.434.433H320.1a.433.433,0,0,0,.433-.433v-1.516a.433.433,0,0,0-.433-.433h-1.516A.433.433,0,0,0,318.147,323.819Zm-4.718,4.305,0,1.806a.516.516,0,0,0,.516.516l1.806,0a.517.517,0,0,0,.517-.516l0-1.806a.517.517,0,0,0-.516-.517l-1.806,0A.516.516,0,0,0,313.429,328.124Zm8.927-8.931V321a.516.516,0,0,0,.516.516h1.806a.516.516,0,0,0,.516-.516v-1.806a.516.516,0,0,0-.516-.516h-1.806A.517.517,0,0,0,322.356,319.193ZM308.5,323.222v2.71a.516.516,0,0,0,.516.515h2.709a.516.516,0,0,0,.516-.515v-2.71a.516.516,0,0,0-.516-.516h-2.709A.516.516,0,0,0,308.5,323.222Zm0,8.94v2.709a.516.516,0,0,0,.516.516h2.709a.516.516,0,0,0,.516-.516v-2.709a.516.516,0,0,0-.516-.516h-2.709A.516.516,0,0,0,308.5,332.162Zm4.471-13.421v2.709a.516.516,0,0,0,.516.516H316.2a.516.516,0,0,0,.516-.516v-2.709a.516.516,0,0,0-.516-.516h-2.709A.516.516,0,0,0,312.976,318.741Zm4.492-4.469v2.709a.516.516,0,0,0,.516.516h2.709a.516.516,0,0,0,.516-.516v-2.709a.516.516,0,0,0-.516-.516h-2.709A.516.516,0,0,0,317.468,314.272Zm4.74-13.213v2.27a.432.432,0,0,0,.432.432h2.27a.433.433,0,0,0,.432-.432v-2.27a.432.432,0,0,0-.432-.432h-2.27A.432.432,0,0,0,322.208,301.059Zm-18.575,26.226,0,3.484a.515.515,0,0,0,.515.516l3.484,0a.515.515,0,0,0,.516-.515l0-3.484a.516.516,0,0,0-.516-.516l-3.484,0A.516.516,0,0,0,303.633,327.284Zm-4.286-4.3v3.193a.473.473,0,0,0,.473.473h3.192a.473.473,0,0,0,.473-.473V322.98a.473.473,0,0,0-.473-.473H299.82A.473.473,0,0,0,299.347,322.98Zm-.188,8.795v3.483a.516.516,0,0,0,.516.516h3.483a.516.516,0,0,0,.516-.516v-3.483a.516.516,0,0,0-.516-.516h-3.483A.516.516,0,0,0,299.159,331.775Zm4.247-13.647v3.935a.516.516,0,0,0,.516.516h3.935a.516.516,0,0,0,.516-.516v-3.935a.516.516,0,0,0-.516-.516h-3.935A.516.516,0,0,0,303.405,318.128Zm4.336-4.64v4.276a.5.5,0,0,0,.5.5h4.276a.5.5,0,0,0,.5-.5v-4.276a.5.5,0,0,0-.5-.5h-4.276A.5.5,0,0,0,307.741,313.488Zm4.622-4.314v3.935a.516.516,0,0,0,.516.516h3.935a.516.516,0,0,0,.516-.516v-3.935a.516.516,0,0,0-.516-.516h-3.935A.516.516,0,0,0,312.363,309.175Zm9.348.419v3.1a.517.517,0,0,0,.516.516h3.1a.516.516,0,0,0,.516-.516v-3.1a.516.516,0,0,0-.516-.516h-3.1A.516.516,0,0,0,321.711,309.594Zm-4.442-4.522v3.192a.473.473,0,0,0,.473.473h3.192a.473.473,0,0,0,.473-.473v-3.192a.472.472,0,0,0-.473-.473h-3.192A.473.473,0,0,0,317.27,305.072Zm8.739-.146v3.483a.516.516,0,0,0,.516.516h3.483a.516.516,0,0,0,.516-.516v-3.483a.516.516,0,0,0-.516-.516h-3.483A.516.516,0,0,0,326.008,304.926Zm3.612,8.83h-2.709a.516.516,0,0,0-.516.516v2.709a.516.516,0,0,0,.516.516h2.709a.516.516,0,0,0,.516-.516v-2.709A.516.516,0,0,0,329.621,313.756Zm17.744-8.718h-2.419a.42.42,0,0,0-.421.421v2.419a.421.421,0,0,0,.421.421h2.419a.421.421,0,0,0,.421-.421v-2.419A.421.421,0,0,0,347.365,305.038Zm-5.118-3.722H341.13a.319.319,0,0,0-.319.319v1.117a.319.319,0,0,0,.319.32h1.117a.319.319,0,0,0,.319-.32v-1.117A.319.319,0,0,0,342.247,301.316Zm17.9,17.9h-1.117a.319.319,0,0,0-.319.32v1.117a.319.319,0,0,0,.319.32h1.117a.319.319,0,0,0,.319-.32v-1.117A.32.32,0,0,0,360.144,319.218Zm-22.55,13.421h-.753a.5.5,0,0,0-.5.5v.752a.5.5,0,0,0,.5.5h.753a.5.5,0,0,0,.5-.5v-.752A.5.5,0,0,0,337.594,332.639Zm-8.957-8.94h-.753a.5.5,0,0,0-.5.5v.752a.5.5,0,0,0,.5.5h.753a.5.5,0,0,0,.5-.5V324.2A.5.5,0,0,0,328.637,323.7Zm27.686-9.7H353.9a.42.42,0,0,0-.42.421v2.419a.42.42,0,0,0,.42.421h2.42a.42.42,0,0,0,.42-.421v-2.419A.42.42,0,0,0,356.323,314Zm-4.152-4.86H349.1a.472.472,0,0,0-.472.472v3.069a.472.472,0,0,0,.472.472h3.069a.472.472,0,0,0,.472-.472v-3.069A.472.472,0,0,0,352.171,309.136Zm-18.283-8.509-2.271,0a.432.432,0,0,0-.432.432l0,2.27a.432.432,0,0,0,.432.433l2.27,0a.433.433,0,0,0,.433-.432l0-2.271A.432.432,0,0,0,333.888,300.628Zm4.087,22.758H336.46a.433.433,0,0,0-.433.433v1.516a.433.433,0,0,0,.433.433h1.516a.433.433,0,0,0,.434-.433v-1.516A.433.433,0,0,0,337.976,323.386Zm-4.32-4.708-1.806,0a.515.515,0,0,0-.516.516l0,1.806a.517.517,0,0,0,.516.517l1.806,0a.516.516,0,0,0,.517-.516l0-1.806A.516.516,0,0,0,333.656,318.678Zm8.935,8.932h-1.806a.516.516,0,0,0-.516.516v1.806a.516.516,0,0,0,.516.516h1.806a.516.516,0,0,0,.516-.516v-1.806A.516.516,0,0,0,342.591,327.61Zm-4.018-13.854h-2.709a.516.516,0,0,0-.516.516v2.709a.516.516,0,0,0,.516.516h2.709a.516.516,0,0,0,.516-.516v-2.709A.516.516,0,0,0,338.573,313.756Zm-8.957,0h-2.709a.516.516,0,0,0-.516.516v2.709a.516.516,0,0,0,.516.516h2.709a.516.516,0,0,0,.516-.516v-2.709A.516.516,0,0,0,329.616,313.756Zm13.427,4.47h-2.709a.516.516,0,0,0-.516.516v2.709a.516.516,0,0,0,.516.516h2.709a.516.516,0,0,0,.516-.516v-2.709A.516.516,0,0,0,343.043,318.225Zm4.467,4.481H344.8a.516.516,0,0,0-.516.516v2.71a.515.515,0,0,0,.516.515h2.709a.515.515,0,0,0,.515-.515v-2.71A.515.515,0,0,0,347.51,322.707Zm13.211,4.754H358.45a.433.433,0,0,0-.432.432v2.27a.433.433,0,0,0,.432.433h2.271a.433.433,0,0,0,.432-.433v-2.27A.433.433,0,0,0,360.721,327.461ZM334.5,308.887l-3.483,0a.515.515,0,0,0-.517.516l0,3.483a.516.516,0,0,0,.516.517l3.483,0a.517.517,0,0,0,.517-.516l0-3.483A.517.517,0,0,0,334.5,308.887Zm4.319-4.288h-3.192a.472.472,0,0,0-.473.473v3.192a.473.473,0,0,0,.473.473h3.192a.473.473,0,0,0,.473-.473v-3.192A.473.473,0,0,0,338.814,304.6ZM330,304.41h-3.484a.516.516,0,0,0-.516.516v3.483a.516.516,0,0,0,.516.516H330a.516.516,0,0,0,.516-.516v-3.483A.516.516,0,0,0,330,304.41Zm13.653,4.249h-3.935a.516.516,0,0,0-.516.516v3.935a.516.516,0,0,0,.516.516h3.935a.516.516,0,0,0,.516-.516v-3.935A.516.516,0,0,0,343.656,308.659Zm4.637,4.334h-4.276a.5.5,0,0,0-.5.5v4.276a.5.5,0,0,0,.5.5h4.276a.5.5,0,0,0,.5-.5v-4.276A.5.5,0,0,0,348.293,312.993Zm4.312,4.62H348.67a.516.516,0,0,0-.516.516v3.935a.516.516,0,0,0,.516.516H352.6a.516.516,0,0,0,.516-.516v-3.935A.516.516,0,0,0,352.6,317.613Zm-.42,9.352h-3.1a.516.516,0,0,0-.516.516v3.1a.516.516,0,0,0,.516.516h3.1a.516.516,0,0,0,.516-.516v-3.1A.516.516,0,0,0,352.185,326.965Zm4.525-4.457h-3.193a.473.473,0,0,0-.473.473v3.193a.473.473,0,0,0,.473.473h3.193a.473.473,0,0,0,.473-.473V322.98A.473.473,0,0,0,356.71,322.507Zm.145,8.752h-3.483a.516.516,0,0,0-.516.516v3.483a.516.516,0,0,0,.516.516h3.483a.516.516,0,0,0,.516-.516v-3.483A.516.516,0,0,0,356.855,331.259Zm-8.83,3.612v-2.709a.515.515,0,0,0-.515-.516H344.8a.516.516,0,0,0-.516.516v2.709a.516.516,0,0,0,.516.516h2.709A.516.516,0,0,0,348.025,334.871Z" transform="translate(-199.803 -266.061)" fill="#051736"/>
  </g>
</svg>
