<svg width="38" height="37" viewBox="0 0 38 37" fill="none" xmlns="http://www.w3.org/2000/svg">
<path d="M3.5729 29.4075H4.53902C4.69505 29.4075 4.82153 29.281 4.82153 29.125V28.1589C4.82153 28.0028 4.69505 27.8763 4.53902 27.8763H3.5729C3.41687 27.8763 3.29038 28.0028 3.29038 28.1589V29.125C3.29038 29.281 3.41687 29.4075 3.5729 29.4075Z" fill="#051736"/>
<path d="M1.35563 26.6138H1.79074C1.92061 26.6138 2.02588 26.5085 2.02588 26.3787V25.9436C2.02588 25.8137 1.92061 25.7084 1.79074 25.7084H1.35563C1.22577 25.7084 1.1205 25.8137 1.1205 25.9436V26.3787C1.1205 26.5085 1.22577 26.6138 1.35563 26.6138Z" fill="#051736"/>
<path d="M11.2851 36.5495H11.7202C11.85 36.5495 11.9553 36.4442 11.9553 36.3143V35.8792C11.9553 35.7494 11.85 35.6441 11.7202 35.6441H11.2851C11.1552 35.6441 11.0499 35.7494 11.0499 35.8792V36.3143C11.0499 36.4442 11.1552 36.5495 11.2851 36.5495Z" fill="#051736"/>
<path d="M18.8664 24.1304H19.0334C19.2373 24.1304 19.4026 23.9651 19.4026 23.7612V23.5942C19.4026 23.3903 19.2373 23.2251 19.0334 23.2251H18.8664C18.6625 23.2251 18.4972 23.3903 18.4972 23.5942V23.7612C18.4972 23.9651 18.6625 24.1304 18.8664 24.1304Z" fill="#051736"/>
<path d="M8.53823 34.3793H9.50435C9.66038 34.3793 9.78687 34.2529 9.78687 34.0968V33.1307C9.78687 32.9747 9.66038 32.8482 9.50435 32.8482H8.53823C8.3822 32.8482 8.25571 32.9747 8.25571 33.1307V34.0968C8.25571 34.2529 8.3822 34.3793 8.53823 34.3793Z" fill="#051736"/>
<path d="M5.79866 32.2444H7.27785C7.48441 32.2444 7.65186 32.077 7.65186 31.8704V30.3912C7.65186 30.1846 7.48441 30.0172 7.27785 30.0172H5.79866C5.5921 30.0172 5.42465 30.1846 5.42465 30.3912V31.8704C5.42465 32.077 5.5921 32.2444 5.79866 32.2444Z" fill="#051736"/>
<path d="M1.06832 22.0299L2.07982 22.0288C2.26172 22.0286 2.40901 21.8809 2.4088 21.699L2.40764 20.6875C2.40743 20.5056 2.2598 20.3583 2.0779 20.3585L1.0664 20.3597C0.884498 20.3599 0.737209 20.5075 0.737419 20.6894L0.738584 21.7009C0.738794 21.8828 0.886422 22.0301 1.06832 22.0299Z" fill="#051736"/>
<path d="M13.685 24.3046H14.2881C14.4675 24.3046 14.613 24.1591 14.613 23.9797V23.3766C14.613 23.1971 14.4675 23.0516 14.2881 23.0516H13.685C13.5055 23.0516 13.36 23.1971 13.36 23.3766V23.9797C13.36 24.1591 13.5055 24.3046 13.685 24.3046Z" fill="#051736"/>
<path d="M11.1253 21.9822L11.8821 21.9813C12.1081 21.981 12.291 21.7976 12.2908 21.5717L12.2899 20.8149C12.2897 20.5889 12.1063 20.406 11.8803 20.4062L11.1235 20.4071C10.8976 20.4074 10.7146 20.5907 10.7148 20.8167L10.7157 21.5735C10.716 21.7995 10.8994 21.9824 11.1253 21.9822Z" fill="#051736"/>
<path d="M16.1026 26.949H16.8594C17.0854 26.949 17.2686 26.7658 17.2686 26.5399V25.7831C17.2686 25.5571 17.0854 25.3739 16.8594 25.3739H16.1026C15.8767 25.3739 15.6935 25.5571 15.6935 25.7831V26.5399C15.6935 26.7658 15.8767 26.949 16.1026 26.949Z" fill="#051736"/>
<path d="M8.38814 24.7226H9.65361C9.88078 24.7226 10.0649 24.5384 10.0649 24.3112V23.0458C10.0649 22.8186 9.88078 22.6344 9.65361 22.6344H8.38814C8.16096 22.6344 7.9768 22.8186 7.9768 23.0458V24.3112C7.9768 24.5384 8.16096 24.7226 8.38814 24.7226Z" fill="#051736"/>
<path d="M8.39204 19.7514H9.65019C9.87615 19.7514 10.0593 19.5682 10.0593 19.3423V18.0841C10.0593 17.8582 9.87615 17.675 9.65019 17.675H8.39204C8.16608 17.675 7.9829 17.8582 7.9829 18.0841V19.3423C7.9829 19.5682 8.16608 19.7514 8.39204 19.7514Z" fill="#051736"/>
<path d="M10.8737 27.2001H12.1319C12.3578 27.2001 12.541 27.0169 12.541 26.7909V25.5328C12.541 25.3068 12.3578 25.1236 12.1319 25.1236H10.8737C10.6478 25.1236 10.4646 25.3068 10.4646 25.5328V26.7909C10.4646 27.0169 10.6478 27.2001 10.8737 27.2001Z" fill="#051736"/>
<path d="M13.3535 29.6856H14.6189C14.8461 29.6856 15.0303 29.5015 15.0303 29.2743V28.0088C15.0303 27.7816 14.8461 27.5975 14.6189 27.5975H13.3535C13.1263 27.5975 12.9421 27.7816 12.9421 28.0088V29.2743C12.9421 29.5015 13.1263 29.6856 13.3535 29.6856Z" fill="#051736"/>
<path d="M15.9751 36.9323H16.9866C17.1685 36.9323 17.3159 36.7848 17.3159 36.6029V35.5914C17.3159 35.4095 17.1685 35.2621 16.9866 35.2621H15.9751C15.7932 35.2621 15.6457 35.4095 15.6457 35.5914V36.6029C15.6457 36.7848 15.7932 36.9323 15.9751 36.9323Z" fill="#051736"/>
<path d="M5.76648 22.3431L7.31374 22.3414C7.5207 22.3411 7.68828 22.1732 7.68804 21.9662L7.68626 20.4189C7.68602 20.212 7.51806 20.0444 7.31109 20.0446L5.76384 20.0464C5.55688 20.0466 5.38929 20.2146 5.38953 20.4216L5.39131 21.9688C5.39155 22.1758 5.55952 22.3434 5.76648 22.3431Z" fill="#051736"/>
<path d="M3.32914 24.7569H4.78272C4.97715 24.7569 5.13477 24.5993 5.13477 24.4049V22.9513C5.13477 22.7569 4.97715 22.5993 4.78272 22.5993H3.32914C3.13471 22.5993 2.9771 22.7569 2.9771 22.9513V24.4049C2.9771 24.5993 3.13471 24.7569 3.32914 24.7569Z" fill="#051736"/>
<path d="M5.6207 27.4665H7.45633C7.67016 27.4665 7.84351 27.2931 7.84351 27.0793V25.2437C7.84351 25.0298 7.67016 24.8565 7.45633 24.8565H5.6207C5.40686 24.8565 5.23352 25.0298 5.23352 25.2437V27.0793C5.23352 27.2931 5.40686 27.4665 5.6207 27.4665Z" fill="#051736"/>
<path d="M8.01631 30.0165H10.0261C10.2303 30.0165 10.3958 29.851 10.3958 29.6468V27.637C10.3958 27.4329 10.2303 27.2674 10.0261 27.2674H8.01631C7.81218 27.2674 7.6467 27.4329 7.6467 27.637V29.6468C7.6467 29.851 7.81218 30.0165 8.01631 30.0165Z" fill="#051736"/>
<path d="M10.5853 32.4354H12.4209C12.6348 32.4354 12.8081 32.262 12.8081 32.0482V30.2126C12.8081 29.9988 12.6348 29.8254 12.4209 29.8254H10.5853C10.3715 29.8254 10.1981 29.9988 10.1981 30.2126V32.0482C10.1981 32.262 10.3715 32.4354 10.5853 32.4354Z" fill="#051736"/>
<path d="M15.7425 32.2788H17.2195C17.4459 32.2788 17.6294 32.0953 17.6294 31.8689V30.3919C17.6294 30.1656 17.4459 29.982 17.2195 29.982H15.7425C15.5162 29.982 15.3327 30.1656 15.3327 30.3919V31.8689C15.3327 32.0953 15.5162 32.2788 15.7425 32.2788Z" fill="#051736"/>
<path d="M13.2598 34.6926H14.7134C14.9078 34.6926 15.0654 34.535 15.0654 34.3406V32.887C15.0654 32.6926 14.9078 32.535 14.7134 32.535H13.2598C13.0654 32.535 12.9078 32.6926 12.9078 32.887V34.3406C12.9078 34.535 13.0654 34.6926 13.2598 34.6926Z" fill="#051736"/>
<path d="M19.9883 29.2714V28.0132C19.9883 27.7873 19.8051 27.6041 19.5791 27.6041H18.321C18.095 27.6041 17.9119 27.7873 17.9119 28.0132V29.2714C17.9119 29.4973 18.095 29.6805 18.321 29.6805H19.5791C19.8051 29.6805 19.9883 29.4973 19.9883 29.2714Z" fill="#051736"/>
<path d="M29.6477 34.0968V33.1307C29.6477 32.9747 29.5212 32.8482 29.3652 32.8482H28.3991C28.243 32.8482 28.1166 32.9747 28.1166 33.1307V34.0968C28.1166 34.2529 28.243 34.3794 28.3991 34.3794H29.3652C29.5212 34.3794 29.6477 34.2529 29.6477 34.0968Z" fill="#051736"/>
<path d="M26.8491 36.3151V35.88C26.8491 35.7501 26.7438 35.6448 26.614 35.6448H26.1789C26.049 35.6448 25.9437 35.7501 25.9437 35.88V36.3151C25.9437 36.4449 26.049 36.5502 26.1789 36.5502H26.614C26.7438 36.5502 26.8491 36.4449 26.8491 36.3151Z" fill="#051736"/>
<path d="M36.7805 26.3794V25.9443C36.7805 25.8144 36.6752 25.7092 36.5454 25.7092H36.1103C35.9804 25.7092 35.8751 25.8144 35.8751 25.9443V26.3794C35.8751 26.5093 35.9804 26.6145 36.1103 26.6145H36.5454C36.6752 26.6145 36.7805 26.5093 36.7805 26.3794Z" fill="#051736"/>
<path d="M24.3696 18.7967V18.6297C24.3696 18.4258 24.2043 18.2605 24.0004 18.2605H23.8334C23.6295 18.2605 23.4642 18.4258 23.4642 18.6297V18.7967C23.4642 19.0006 23.6295 19.1659 23.8334 19.1659H24.0004C24.2043 19.1659 24.3696 19.0006 24.3696 18.7967Z" fill="#051736"/>
<path d="M34.613 29.125V28.1588C34.613 28.0028 34.4865 27.8763 34.3305 27.8763H33.3644C33.2084 27.8763 33.0819 28.0028 33.0819 28.1588V29.125C33.0819 29.281 33.2084 29.4075 33.3644 29.4075H34.3305C34.4865 29.4075 34.613 29.281 34.613 29.125Z" fill="#051736"/>
<path d="M32.4768 31.8704V30.3912C32.4768 30.1846 32.3094 30.0172 32.1028 30.0172H30.6236C30.4171 30.0172 30.2496 30.1846 30.2496 30.3912V31.8704C30.2496 32.0769 30.4171 32.2444 30.6236 32.2444H32.1028C32.3094 32.2444 32.4768 32.0769 32.4768 31.8704Z" fill="#051736"/>
<path d="M22.2696 36.6021L22.2684 35.5907C22.2682 35.4088 22.1206 35.2615 21.9387 35.2617L20.9272 35.2628C20.7453 35.263 20.598 35.4107 20.5982 35.5926L20.5994 36.6041C20.5996 36.786 20.7472 36.9333 20.9291 36.9331L21.9406 36.9319C22.1225 36.9317 22.2698 36.784 22.2696 36.6021Z" fill="#051736"/>
<path d="M24.5437 23.9797V23.3766C24.5437 23.1971 24.3982 23.0516 24.2187 23.0516H23.6156C23.4362 23.0516 23.2907 23.1971 23.2907 23.3766V23.9797C23.2907 24.1591 23.4362 24.3046 23.6156 24.3046H24.2187C24.3982 24.3046 24.5437 24.1591 24.5437 23.9797Z" fill="#051736"/>
<path d="M22.222 26.5392L22.2212 25.7824C22.2209 25.5564 22.0375 25.3734 21.8116 25.3737L21.0548 25.3746C20.8288 25.3748 20.6458 25.5582 20.6461 25.7842L20.647 26.541C20.6472 26.7669 20.8306 26.9499 21.0566 26.9496L21.8134 26.9488C22.0393 26.9485 22.2223 26.7651 22.222 26.5392Z" fill="#051736"/>
<path d="M27.1282 21.5446V20.8427C27.1282 20.6329 26.9581 20.4628 26.7483 20.4628H26.0464C25.8366 20.4628 25.6666 20.6329 25.6666 20.8427V21.5446C25.6666 21.7544 25.8366 21.9245 26.0464 21.9245H26.7483C26.9581 21.9245 27.1282 21.7544 27.1282 21.5446Z" fill="#051736"/>
<path d="M24.9607 29.275V28.0095C24.9607 27.7824 24.7765 27.5982 24.5494 27.5982H23.2839C23.0567 27.5982 22.8726 27.7824 22.8726 28.0095V29.275C22.8726 29.5022 23.0567 29.6863 23.2839 29.6863H24.5494C24.7765 29.6863 24.9607 29.5022 24.9607 29.275Z" fill="#051736"/>
<path d="M27.4355 26.7909V25.5328C27.4355 25.3068 27.2524 25.1237 27.0264 25.1237H25.7683C25.5423 25.1237 25.3591 25.3068 25.3591 25.5328V26.7909C25.3591 27.0169 25.5423 27.2001 25.7683 27.2001H27.0264C27.2524 27.2001 27.4355 27.0169 27.4355 26.7909Z" fill="#051736"/>
<path d="M29.926 24.3112V23.0457C29.926 22.8186 29.7419 22.6344 29.5147 22.6344H28.2492C28.022 22.6344 27.8379 22.8186 27.8379 23.0457V24.3112C27.8379 24.5384 28.022 24.7226 28.2492 24.7226H29.5147C29.7419 24.7226 29.926 24.5384 29.926 24.3112Z" fill="#051736"/>
<path d="M37.1633 21.6997V20.6882C37.1633 20.5063 37.0159 20.3589 36.834 20.3589H35.8225C35.6406 20.3589 35.4931 20.5063 35.4931 20.6882V21.6997C35.4931 21.8816 35.6406 22.0291 35.8225 22.0291H36.834C37.0159 22.0291 37.1633 21.8816 37.1633 21.6997Z" fill="#051736"/>
<path d="M22.5833 31.9026L22.5815 30.3553C22.5812 30.1484 22.4133 29.9808 22.2063 29.981L20.6591 29.9828C20.4521 29.983 20.2845 30.151 20.2848 30.358L20.2865 31.9052C20.2868 32.1122 20.4547 32.2798 20.6617 32.2795L22.209 32.2778C22.4159 32.2775 22.5835 32.1095 22.5833 31.9026Z" fill="#051736"/>
<path d="M24.9958 34.3406V32.887C24.9958 32.6926 24.8382 32.5349 24.6438 32.5349H23.1902C22.9958 32.5349 22.8382 32.6926 22.8382 32.887V34.3406C22.8382 34.535 22.9958 34.6926 23.1902 34.6926H24.6438C24.8382 34.6926 24.9958 34.535 24.9958 34.3406Z" fill="#051736"/>
<path d="M20.3074 34.5287V32.6996C20.3074 32.4551 20.1091 32.2568 19.8646 32.2568H18.0355C17.791 32.2568 17.5927 32.4551 17.5927 32.6996V34.5287C17.5927 34.7732 17.791 34.9715 18.0355 34.9715H19.8646C20.1091 34.9715 20.3074 34.7732 20.3074 34.5287Z" fill="#051736"/>
<path d="M27.7019 32.0482V30.2126C27.7019 29.9988 27.5286 29.8254 27.3147 29.8254H25.4791C25.2653 29.8254 25.0919 29.9988 25.0919 30.2126V32.0482C25.0919 32.2621 25.2653 32.4354 25.4791 32.4354H27.3147C27.5286 32.4354 27.7019 32.2621 27.7019 32.0482Z" fill="#051736"/>
<path d="M30.2571 29.6468V27.637C30.2571 27.4329 30.0916 27.2674 29.8875 27.2674H27.8776C27.6735 27.2674 27.508 27.4329 27.508 27.637V29.6468C27.508 29.851 27.6735 30.0164 27.8776 30.0164H29.8875C30.0916 30.0164 30.2571 29.851 30.2571 29.6468Z" fill="#051736"/>
<path d="M32.6685 27.0793V25.2437C32.6685 25.0298 32.4951 24.8565 32.2813 24.8565H30.4456C30.2318 24.8565 30.0585 25.0298 30.0585 25.2437V27.0793C30.0585 27.2931 30.2318 27.4665 30.4456 27.4665H32.2813C32.4951 27.4665 32.6685 27.2931 32.6685 27.0793Z" fill="#051736"/>
<path d="M32.5122 21.9325V20.4555C32.5122 20.2291 32.3287 20.0456 32.1023 20.0456H30.6253C30.399 20.0456 30.2155 20.2291 30.2155 20.4555V21.9325C30.2155 22.1589 30.399 22.3424 30.6253 22.3424H32.1023C32.3287 22.3424 32.5122 22.1589 32.5122 21.9325Z" fill="#051736"/>
<path d="M34.9265 24.4049V22.9514C34.9265 22.7569 34.7689 22.5993 34.5745 22.5993H33.1209C32.9265 22.5993 32.7688 22.7569 32.7688 22.9514V24.4049C32.7688 24.5994 32.9265 24.757 33.1209 24.757H34.5745C34.7689 24.757 34.9265 24.5994 34.9265 24.4049Z" fill="#051736"/>
<path d="M29.5113 17.675H28.2531C28.0272 17.675 27.844 17.8582 27.844 18.0841V19.3423C27.844 19.5682 28.0272 19.7514 28.2531 19.7514H29.5113C29.7372 19.7514 29.9204 19.5682 29.9204 19.3423V18.0841C29.9204 17.8582 29.7372 17.675 29.5113 17.675Z" fill="#051736"/>
<path d="M3.5729 9.55006H4.53902C4.69505 9.55006 4.82153 9.42358 4.82153 9.26755V8.30143C4.82153 8.1454 4.69505 8.01891 4.53902 8.01891H3.5729C3.41687 8.01891 3.29038 8.1454 3.29038 8.30143V9.26755C3.29038 9.42358 3.41687 9.55006 3.5729 9.55006Z" fill="#051736"/>
<path d="M1.35563 11.7172H1.79074C1.92061 11.7172 2.02588 11.612 2.02588 11.4821V11.047C2.02588 10.9171 1.92061 10.8119 1.79074 10.8119H1.35563C1.22577 10.8119 1.1205 10.9171 1.1205 11.047V11.4821C1.1205 11.612 1.22577 11.7172 1.35563 11.7172Z" fill="#051736"/>
<path d="M11.2851 1.78889H11.7202C11.85 1.78889 11.9553 1.68362 11.9553 1.55376V1.11865C11.9553 0.988789 11.85 0.883515 11.7202 0.883515L11.2851 0.883515C11.1552 0.883515 11.0499 0.988789 11.0499 1.11865V1.55376C11.0499 1.68362 11.1552 1.78889 11.2851 1.78889Z" fill="#051736"/>
<path d="M13.9028 19.1652H14.0698C14.2737 19.1652 14.439 18.9999 14.439 18.796V18.629C14.439 18.4251 14.2737 18.2598 14.0698 18.2598H13.9028C13.6989 18.2598 13.5336 18.4251 13.5336 18.629V18.796C13.5336 18.9999 13.6989 19.1652 13.9028 19.1652Z" fill="#051736"/>
<path d="M8.53823 4.58334H9.50435C9.66038 4.58334 9.78687 4.45686 9.78687 4.30083V3.33471C9.78687 3.17868 9.66038 3.05219 9.50435 3.05219H8.53823C8.3822 3.05219 8.25571 3.17868 8.25571 3.33471V4.30083C8.25571 4.45686 8.3822 4.58334 8.53823 4.58334Z" fill="#051736"/>
<path d="M5.79866 7.40924H7.27785C7.48441 7.40924 7.65186 7.24179 7.65186 7.03523V5.55605C7.65186 5.34949 7.48441 5.18204 7.27785 5.18204H5.79866C5.5921 5.18204 5.42465 5.34949 5.42465 5.55605V7.03523C5.42465 7.24179 5.5921 7.40924 5.79866 7.40924Z" fill="#051736"/>
<path d="M1.06613 17.0638L2.07762 17.0649C2.25952 17.0651 2.40715 16.9178 2.40736 16.7359L2.40853 15.7245C2.40874 15.5426 2.26145 15.3949 2.07955 15.3947L1.06805 15.3935C0.886149 15.3933 0.73852 15.5406 0.738311 15.7225L0.737146 16.734C0.736936 16.9159 0.884225 17.0636 1.06613 17.0638Z" fill="#051736"/>
<path d="M13.685 14.3777H14.2881C14.4675 14.3777 14.613 14.2323 14.613 14.0528V13.4497C14.613 13.2702 14.4675 13.1247 14.2881 13.1247H13.685C13.5055 13.1247 13.36 13.2702 13.36 13.4497V14.0528C13.36 14.2323 13.5055 14.3777 13.685 14.3777Z" fill="#051736"/>
<path d="M11.1231 17.0164L11.8799 17.0173C12.1059 17.0176 12.2893 16.8346 12.2895 16.6086L12.2904 15.8518C12.2907 15.6259 12.1077 15.4425 11.8817 15.4422L11.1249 15.4413C10.899 15.4411 10.7156 15.6241 10.7153 15.85L10.7145 16.6068C10.7142 16.8328 10.8972 17.0162 11.1231 17.0164Z" fill="#051736"/>
<path d="M16.1026 12.0525H16.8594C17.0854 12.0525 17.2686 11.8693 17.2686 11.6433V10.8865C17.2686 10.6606 17.0854 10.4774 16.8594 10.4774H16.1026C15.8767 10.4774 15.6935 10.6606 15.6935 10.8865V11.6433C15.6935 11.8693 15.8767 12.0525 16.1026 12.0525Z" fill="#051736"/>
<path d="M8.39204 14.7898H9.65019C9.87615 14.7898 10.0593 14.6066 10.0593 14.3807V13.1225C10.0593 12.8965 9.87615 12.7134 9.65019 12.7134H8.39204C8.16608 12.7134 7.9829 12.8965 7.9829 13.1225V14.3807C7.9829 14.6066 8.16608 14.7898 8.39204 14.7898Z" fill="#051736"/>
<path d="M10.8737 12.3028H12.1319C12.3578 12.3028 12.541 12.1196 12.541 11.8936V10.6355C12.541 10.4095 12.3578 10.2263 12.1319 10.2263H10.8737C10.6478 10.2263 10.4646 10.4095 10.4646 10.6355V11.8936C10.4646 12.1196 10.6478 12.3028 10.8737 12.3028Z" fill="#051736"/>
<path d="M13.3535 9.8282H14.6189C14.8461 9.8282 15.0303 9.64404 15.0303 9.41687V8.1514C15.0303 7.92422 14.8461 7.74006 14.6189 7.74006H13.3535C13.1263 7.74006 12.9421 7.92422 12.9421 8.1514V9.41687C12.9421 9.64404 13.1263 9.8282 13.3535 9.8282Z" fill="#051736"/>
<path d="M15.9751 2.17168H16.9866C17.1685 2.17168 17.3159 2.02422 17.3159 1.84232V0.830819C17.3159 0.648918 17.1685 0.501459 16.9866 0.501459L15.9751 0.501459C15.7932 0.501459 15.6457 0.648918 15.6457 0.830819V1.84232C15.6457 2.02422 15.7932 2.17168 15.9751 2.17168Z" fill="#051736"/>
<path d="M5.83448 17.2719L7.24047 17.2735C7.42884 17.2737 7.58172 17.1212 7.58194 16.9328L7.58356 15.5268C7.58377 15.3385 7.43125 15.1856 7.24288 15.1854L5.83688 15.1837C5.64851 15.1835 5.49564 15.3361 5.49542 15.5244L5.4938 16.9304C5.49358 17.1188 5.64611 17.2717 5.83448 17.2719Z" fill="#051736"/>
<path d="M3.32914 14.8308H4.78272C4.97715 14.8308 5.13477 14.6732 5.13477 14.4787V13.0252C5.13477 12.8307 4.97715 12.6731 4.78272 12.6731H3.32914C3.13471 12.6731 2.9771 12.8307 2.9771 13.0252V14.4787C2.9771 14.6732 3.13471 14.8308 3.32914 14.8308Z" fill="#051736"/>
<path d="M3.14124 20.0705H4.97028C5.21484 20.0705 5.41309 19.8723 5.41309 19.6277V17.7987C5.41309 17.5541 5.21484 17.3559 4.97028 17.3559H3.14124C2.89668 17.3559 2.69843 17.5541 2.69843 17.7987L2.69843 19.6277C2.69843 19.8723 2.89668 20.0705 3.14124 20.0705Z" fill="#051736"/>
<path d="M5.6207 12.5699H7.45633C7.67016 12.5699 7.84351 12.3966 7.84351 12.1827V10.3471C7.84351 10.1333 7.67016 9.95993 7.45633 9.95993H5.6207C5.40686 9.95993 5.23352 10.1333 5.23352 10.3471V12.1827C5.23352 12.3966 5.40686 12.5699 5.6207 12.5699Z" fill="#051736"/>
<path d="M8.01631 10.159H10.0261C10.2303 10.159 10.3958 9.99353 10.3958 9.7894V7.77957C10.3958 7.57544 10.2303 7.40996 10.0261 7.40996H8.01631C7.81218 7.40996 7.6467 7.57544 7.6467 7.77957V9.7894C7.6467 9.99353 7.81218 10.159 8.01631 10.159Z" fill="#051736"/>
<path d="M10.5853 7.60023H12.4209C12.6348 7.60023 12.8081 7.42689 12.8081 7.21305V5.37743C12.8081 5.16359 12.6348 4.99025 12.4209 4.99025H10.5853C10.3715 4.99025 10.1981 5.16359 10.1981 5.37743V7.21305C10.1981 7.42689 10.3715 7.60023 10.5853 7.60023Z" fill="#051736"/>
<path d="M15.7445 7.44144H17.2171C17.443 7.44144 17.6262 7.25826 17.6262 7.0323V5.5597C17.6262 5.33374 17.443 5.15056 17.2171 5.15056H15.7445C15.5185 5.15056 15.3353 5.33374 15.3353 5.5597V7.0323C15.3353 7.25826 15.5185 7.44144 15.7445 7.44144Z" fill="#051736"/>
<path d="M13.2598 4.89586H14.7134C14.9078 4.89586 15.0654 4.73824 15.0654 4.54381V3.09024C15.0654 2.89581 14.9078 2.73819 14.7134 2.73819H13.2598C13.0654 2.73819 12.9078 2.89581 12.9078 3.09024V4.54381C12.9078 4.73824 13.0654 4.89586 13.2598 4.89586Z" fill="#051736"/>
<path d="M17.9119 8.15505V9.4132C17.9119 9.63916 18.095 9.82234 18.321 9.82234H19.5792C19.8051 9.82234 19.9883 9.63916 19.9883 9.4132V8.15505C19.9883 7.92909 19.8051 7.74591 19.5792 7.74591H18.321C18.095 7.74591 17.9119 7.92909 17.9119 8.15505Z" fill="#051736"/>
<path d="M28.1167 3.33471V4.30083C28.1167 4.45686 28.2432 4.58334 28.3992 4.58334H29.3653C29.5214 4.58334 29.6479 4.45686 29.6479 4.30083V3.33471C29.6479 3.17868 29.5214 3.05219 29.3653 3.05219H28.3992C28.2432 3.05219 28.1167 3.17868 28.1167 3.33471Z" fill="#051736"/>
<path d="M25.9443 1.11865V1.55376C25.9443 1.68362 26.0496 1.78889 26.1795 1.78889H26.6146C26.7444 1.78889 26.8497 1.68362 26.8497 1.55376V1.11865C26.8497 0.988789 26.7444 0.883515 26.6146 0.883515H26.1795C26.0496 0.883515 25.9443 0.988789 25.9443 1.11865Z" fill="#051736"/>
<path d="M35.8757 11.047V11.4821C35.8757 11.612 35.981 11.7172 36.1109 11.7172H36.546C36.6758 11.7172 36.7811 11.612 36.7811 11.4821V11.047C36.7811 10.9171 36.6758 10.8119 36.546 10.8119H36.1109C35.981 10.8119 35.8757 10.9171 35.8757 11.047Z" fill="#051736"/>
<path d="M18.4973 13.6681V13.8351C18.4973 14.039 18.6626 14.2043 18.8665 14.2043H19.0335C19.2374 14.2043 19.4027 14.039 19.4027 13.8351V13.6681C19.4027 13.4642 19.2374 13.2989 19.0335 13.2989H18.8665C18.6626 13.2989 18.4973 13.4642 18.4973 13.6681Z" fill="#051736"/>
<path d="M33.082 8.30143V9.26755C33.082 9.42358 33.2085 9.55006 33.3645 9.55006H34.3307C34.4867 9.55006 34.6132 9.42358 34.6132 9.26755V8.30143C34.6132 8.1454 34.4867 8.01891 34.3307 8.01891H33.3645C33.2085 8.01891 33.082 8.1454 33.082 8.30143Z" fill="#051736"/>
<path d="M30.2498 5.55605V7.03523C30.2498 7.24179 30.4172 7.40924 30.6238 7.40924H32.103C32.3095 7.40924 32.477 7.24179 32.477 7.03523V5.55605C32.477 5.34949 32.3095 5.18204 32.103 5.18204H30.6238C30.4172 5.18204 30.2498 5.34949 30.2498 5.55605Z" fill="#051736"/>
<path d="M20.5994 0.829355L20.5983 1.84085C20.5981 2.02275 20.7454 2.17038 20.9273 2.17059L21.9388 2.17176C22.1207 2.17197 22.2683 2.02468 22.2685 1.84278L22.2697 0.831279C22.2699 0.649378 22.1226 0.50175 21.9407 0.50154L20.9292 0.500375C20.7473 0.500165 20.5997 0.647455 20.5994 0.829355Z" fill="#051736"/>
<path d="M23.2905 13.4497V14.0528C23.2905 14.2323 23.436 14.3777 23.6155 14.3777H24.2186C24.3981 14.3777 24.5436 14.2323 24.5436 14.0528V13.4497C24.5436 13.2702 24.3981 13.1247 24.2186 13.1247H23.6155C23.436 13.1247 23.2905 13.2702 23.2905 13.4497Z" fill="#051736"/>
<path d="M20.6469 10.8851L20.646 11.6419C20.6457 11.8678 20.8287 12.0512 21.0546 12.0515L21.8114 12.0524C22.0374 12.0526 22.2208 11.8697 22.221 11.6437L22.2219 10.8869C22.2222 10.6609 22.0392 10.4776 21.8133 10.4773L21.0565 10.4764C20.8305 10.4762 20.6471 10.6591 20.6469 10.8851Z" fill="#051736"/>
<path d="M25.6096 15.8503V16.6071C25.6096 16.8331 25.7928 17.0163 26.0188 17.0163H26.7756C27.0015 17.0163 27.1847 16.8331 27.1847 16.6071V15.8503C27.1847 15.6244 27.0015 15.4412 26.7756 15.4412H26.0188C25.7928 15.4412 25.6096 15.6244 25.6096 15.8503Z" fill="#051736"/>
<path d="M22.8728 8.1514V9.41687C22.8728 9.64404 23.057 9.8282 23.2841 9.8282H24.5496C24.7768 9.8282 24.9609 9.64404 24.9609 9.41687V8.1514C24.9609 7.92422 24.7768 7.74006 24.5496 7.74006H23.2841C23.057 7.74006 22.8728 7.92422 22.8728 8.1514Z" fill="#051736"/>
<path d="M25.2485 10.5689V11.961C25.2485 12.2108 25.451 12.4133 25.7009 12.4133H27.0929C27.3428 12.4133 27.5453 12.2108 27.5453 11.961V10.5689C27.5453 10.3191 27.3428 10.1166 27.0929 10.1166H25.7009C25.451 10.1166 25.2485 10.3191 25.2485 10.5689Z" fill="#051736"/>
<path d="M27.844 13.1225V14.3807C27.844 14.6066 28.0272 14.7898 28.2531 14.7898H29.5113C29.7372 14.7898 29.9204 14.6066 29.9204 14.3807V13.1225C29.9204 12.8965 29.7372 12.7134 29.5113 12.7134H28.2531C28.0272 12.7134 27.844 12.8965 27.844 13.1225Z" fill="#051736"/>
<path d="M35.4932 15.723V16.7345C35.4932 16.9164 35.6406 17.0639 35.8225 17.0639H36.834C37.0159 17.0639 37.1634 16.9164 37.1634 16.7345V15.723C37.1634 15.5411 37.0159 15.3937 36.834 15.3937H35.8225C35.6406 15.3937 35.4932 15.5411 35.4932 15.723Z" fill="#051736"/>
<path d="M20.2871 5.52089L20.2853 7.06815C20.2851 7.27511 20.4527 7.44308 20.6596 7.44332L22.2069 7.4451C22.4139 7.44534 22.5818 7.27776 22.5821 7.07079L22.5839 5.52354C22.5841 5.31658 22.4165 5.14861 22.2096 5.14837L20.6623 5.14659C20.4553 5.14635 20.2874 5.31393 20.2871 5.52089Z" fill="#051736"/>
<path d="M22.8386 3.09024V4.54381C22.8386 4.73824 22.9962 4.89586 23.1907 4.89586H24.6442C24.8387 4.89586 24.9963 4.73824 24.9963 4.54381V3.09024C24.9963 2.89581 24.8387 2.73819 24.6442 2.73819H23.1907C22.9962 2.73819 22.8386 2.89581 22.8386 3.09024Z" fill="#051736"/>
<path d="M17.5928 2.90287V4.73191C17.5928 4.97646 17.791 5.17471 18.0356 5.17471H19.8646C20.1092 5.17471 20.3074 4.97646 20.3074 4.73191V2.90287C20.3074 2.65831 20.1092 2.46006 19.8646 2.46006H18.0356C17.791 2.46006 17.5928 2.65831 17.5928 2.90287Z" fill="#051736"/>
<path d="M25.0918 5.37743V7.21305C25.0918 7.42689 25.2651 7.60023 25.479 7.60023H27.3146C27.5284 7.60023 27.7018 7.42689 27.7018 7.21305V5.37743C27.7018 5.16359 27.5284 4.99025 27.3146 4.99025H25.479C25.2651 4.99025 25.0918 5.16359 25.0918 5.37743Z" fill="#051736"/>
<path d="M27.5076 7.77957V9.7894C27.5076 9.99353 27.6731 10.159 27.8772 10.159H29.887C30.0911 10.159 30.2566 9.99353 30.2566 9.7894V7.77957C30.2566 7.57544 30.0911 7.40996 29.887 7.40996H27.8772C27.6731 7.40996 27.5076 7.57544 27.5076 7.77957Z" fill="#051736"/>
<path d="M30.0586 10.3471V12.1827C30.0586 12.3966 30.2319 12.5699 30.4458 12.5699H32.2814C32.4952 12.5699 32.6686 12.3966 32.6686 12.1827V10.3471C32.6686 10.1333 32.4952 9.95993 32.2814 9.95993H30.4458C30.2319 9.95993 30.0586 10.1333 30.0586 10.3471Z" fill="#051736"/>
<path d="M30.2183 15.4932V16.9658C30.2183 17.1917 30.4014 17.3749 30.6274 17.3749H32.1C32.326 17.3749 32.5091 17.1917 32.5091 16.9658V15.4932C32.5091 15.2672 32.326 15.084 32.1 15.084H30.6274C30.4014 15.084 30.2183 15.2672 30.2183 15.4932Z" fill="#051736"/>
<path d="M32.7688 13.0252V14.4787C32.7688 14.6732 32.9264 14.8308 33.1208 14.8308H34.5744C34.7689 14.8308 34.9265 14.6732 34.9265 14.4787V13.0252C34.9265 12.8307 34.7689 12.6731 34.5744 12.6731H33.1208C32.9264 12.6731 32.7688 12.8307 32.7688 13.0252Z" fill="#051736"/>
<path d="M32.4897 17.7987V19.6277C32.4897 19.8723 32.688 20.0705 32.9326 20.0705H34.7616C35.0061 20.0705 35.2044 19.8723 35.2044 19.6277V17.7987C35.2044 17.5541 35.0061 17.3559 34.7616 17.3559H32.9326C32.688 17.3559 32.4897 17.5541 32.4897 17.7987Z" fill="#051736"/>
</svg>
